<?xml version="1.0" encoding="UTF-8"?>
<svg version="1.1" xmlns="http://www.w3.org/2000/svg" width="549" height="523">
<path d="M0 0 C1.59928039 0.55592778 3.2036823 1.09730779 4.8125 1.625 C5.54082031 1.86476563 6.26914062 2.10453125 7.01953125 2.3515625 C7.67308594 2.56554687 8.32664062 2.77953125 9 3 C9.99 3.33 10.98 3.66 12 4 C12 4.66 12 5.32 12 6 C13.65 6 15.3 6 17 6 C17 6.66 17 7.32 17 8 C17.83724609 8.15662109 17.83724609 8.15662109 18.69140625 8.31640625 C26.12620407 10.51791153 32.77830554 16.44332291 38.9375 21.0625 C39.48075928 21.46138428 40.02401855 21.86026855 40.58374023 22.27124023 C45.91956602 26.35802602 48.71011259 31.4525647 51.9375 37.2265625 C53.00859814 39.01435131 54.18630175 40.64684233 55.4375 42.3125 C63.81483901 53.84094817 69.70653133 68.81068862 70.75390625 82.9609375 C70.78619224 84.99195453 70.78619224 84.99195453 72 86 C72.24506257 89.93176896 72.22867104 93.8676342 72.24023438 97.80639648 C72.2497748 99.7662381 72.28087745 101.72593717 72.3125 103.68554688 C72.35546199 114.22734423 71.11565726 123.658365 66 133 C65.71898437 133.86238281 65.43796875 134.72476563 65.1484375 135.61328125 C63.7300677 139.79602486 61.98770736 143.78222269 60.1875 147.8125 C59.83365234 148.60769043 59.47980469 149.40288086 59.11523438 150.22216797 C56.67225097 155.65213245 54.03778989 160.87372956 51 166 C50.34 166 49.68 166 49 166 C48.88140625 166.57234375 48.7628125 167.1446875 48.640625 167.734375 C46.84894855 174.07079171 42.53367376 179.86022623 39.015625 185.37109375 C37.94589988 187.03008742 37.94589988 187.03008742 37 189 C36.34 189 35.68 189 35 189 C34.89558594 189.55171875 34.79117188 190.1034375 34.68359375 190.671875 C33.85439616 193.49588509 32.5720035 195.72554916 31.0625 198.25 C30.53785156 199.14203125 30.01320313 200.0340625 29.47265625 200.953125 C28.98667969 201.62859375 28.50070312 202.3040625 28 203 C27.34 203 26.68 203 26 203 C25.6596875 204.2684375 25.6596875 204.2684375 25.3125 205.5625 C23.80761382 209.50386856 21.87296745 212.88761859 19 216 C18.34 216 17.68 216 17 216 C16.8453125 216.8971875 16.8453125 216.8971875 16.6875 217.8125 C15.90088144 220.31537724 14.86454169 221.21314755 13 223 C12.67 223.99 12.34 224.98 12 226 C11.34 226 10.68 226 10 226 C9.731875 226.721875 9.46375 227.44375 9.1875 228.1875 C8.00098638 230.99766383 6.72514361 233.48416557 5 236 C4.34 236 3.68 236 3 236 C3 236.66 3 237.32 3 238 C2.34 238 1.68 238 1 238 C0.6596875 239.2684375 0.6596875 239.2684375 0.3125 240.5625 C-1.19238618 244.50386856 -3.12703255 247.88761859 -6 251 C-6.66 251 -7.32 251 -8 251 C-8 251.99 -8 252.98 -8 254 C-8.66 254 -9.32 254 -10 254 C-10.2475 254.70125 -10.495 255.4025 -10.75 256.125 C-12.17180238 259.39514548 -13.87246288 262.141122 -16 265 C-16.66 265 -17.32 265 -18 265 C-18.66 266.65 -19.32 268.3 -20 270 C-20.66 270 -21.32 270 -22 270 C-22.33 271.32 -22.66 272.64 -23 274 C-23.66 274 -24.32 274 -25 274 C-25.226875 274.721875 -25.45375 275.44375 -25.6875 276.1875 C-27.24831013 279.53209313 -29.3031287 281.51603959 -32 284 C-34.5 282.625 -34.5 282.625 -37 281 C-37 280.34 -37 279.68 -37 279 C-37.66 279 -38.32 279 -39 279 C-39 277.68 -39 276.36 -39 275 C-39.66 275 -40.32 275 -41 275 C-42.01866229 273.34467377 -43.01810813 271.67739862 -44 270 C-44.66 269.67 -45.32 269.34 -46 269 C-46 268.01 -46 267.02 -46 266 C-46.66 266 -47.32 266 -48 266 C-48 265.01 -48 264.02 -48 263 C-48.66 263 -49.32 263 -50 263 C-51.625 261.75 -51.625 261.75 -53 260 C-53 258.68 -53 257.36 -53 256 C-53.66 256 -54.32 256 -55 256 C-55 255.34 -55 254.68 -55 254 C-55.66 254 -56.32 254 -57 254 C-57 253.01 -57 252.02 -57 251 C-57.66 251 -58.32 251 -59 251 C-59.33 249.68 -59.66 248.36 -60 247 C-60.66 247 -61.32 247 -62 247 C-62 246.01 -62 245.02 -62 244 C-62.66 244 -63.32 244 -64 244 C-64 243.34 -64 242.68 -64 242 C-64.66 242 -65.32 242 -66 242 C-66.495 239.525 -66.495 239.525 -67 237 C-67.66 237 -68.32 237 -69 237 C-69 236.34 -69 235.68 -69 235 C-69.66 235 -70.32 235 -71 235 C-71 234.01 -71 233.02 -71 232 C-71.66 232 -72.32 232 -73 232 C-74.2890625 230.3203125 -74.2890625 230.3203125 -75.625 228.125 C-76.07101563 227.40570313 -76.51703125 226.68640625 -76.9765625 225.9453125 C-78 224 -78 224 -78 222 C-78.66 222 -79.32 222 -80 222 C-83 217.61538462 -83 217.61538462 -83 215 C-83.66 215 -84.32 215 -85 215 C-85 214.01 -85 213.02 -85 212 C-85.66 212 -86.32 212 -87 212 C-87 211.01 -87 210.02 -87 209 C-87.66 209 -88.32 209 -89 209 C-91.74375671 206.04518508 -92 205.22528092 -92 201 C-92.66 201 -93.32 201 -94 201 C-97 196.61538462 -97 196.61538462 -97 194 C-97.66 194 -98.32 194 -99 194 C-99.98219627 192.23084525 -100.96065359 190.45961431 -101.9375 188.6875 C-102.48277344 187.70136719 -103.02804688 186.71523438 -103.58984375 185.69921875 C-105 183 -105 183 -106 180 C-106.66 180 -107.32 180 -108 180 C-109.4606285 177.35261084 -110 176.10551666 -110 173 C-110.66 173 -111.32 173 -112 173 C-112.33 171.35 -112.66 169.7 -113 168 C-113.66 168 -114.32 168 -115 168 C-116.4606285 165.35261084 -117 164.10551666 -117 161 C-117.66 161 -118.32 161 -119 161 C-119.84069415 159.39967863 -120.67231505 157.79458829 -121.5 156.1875 C-121.9640625 155.29417969 -122.428125 154.40085938 -122.90625 153.48046875 C-124 151 -124 151 -124 148 C-124.66 148 -125.32 148 -126 148 C-129.42857143 140.71428571 -129.42857143 140.71428571 -129 136 C-129.66 136 -130.32 136 -131 136 C-131 134.35 -131 132.7 -131 131 C-131.66 131 -132.32 131 -133 131 C-139.19046887 108.3405479 -138.84321882 84.23514462 -131 62 C-130.34 62 -129.68 62 -129 62 C-128.87625 61.113125 -128.7525 60.22625 -128.625 59.3125 C-128.05587264 56.29612498 -127.23385564 53.79673946 -126 51 C-125.34 51 -124.68 51 -124 51 C-123.91621094 50.47921875 -123.83242187 49.9584375 -123.74609375 49.421875 C-122.70826677 46.05301257 -120.90854286 43.22327257 -119.0625 40.25 C-118.70220703 39.64800781 -118.34191406 39.04601562 -117.97070312 38.42578125 C-117.03920867 36.91274606 -116.02538164 35.45105131 -115 34 C-114.34 34 -113.68 34 -113 34 C-112.67 33.01 -112.34 32.02 -112 31 C-111.34 31 -110.68 31 -110 31 C-109.773125 30.443125 -109.54625 29.88625 -109.3125 29.3125 C-107.62449964 26.33840412 -105.53323483 24.27991135 -103 22 C-102.34 22 -101.68 22 -101 22 C-101 21.34 -101 20.68 -101 20 C-100.34 20 -99.68 20 -99 20 C-99 19.34 -99 18.68 -99 18 C-94.61538462 15 -94.61538462 15 -92 15 C-92 14.34 -92 13.68 -92 13 C-91.01 13 -90.02 13 -89 13 C-89 12.34 -89 11.68 -89 11 C-83.375 8 -83.375 8 -80 8 C-80 7.34 -80 6.68 -80 6 C-78.10435574 5.20788071 -76.20847629 4.41632424 -74.3125 3.625 C-72.72888672 2.96371094 -72.72888672 2.96371094 -71.11328125 2.2890625 C-70.08589844 1.86367187 -69.05851562 1.43828125 -68 1 C-67.1234375 0.6184375 -66.246875 0.236875 -65.34375 -0.15625 C-62.18270672 -1.29422558 -59.32901311 -1.13054953 -56 -1 C-56 -1.66 -56 -2.32 -56 -3 C-37.8114032 -6.00460596 -17.2876706 -7.45158216 0 0 Z " fill="#53B058" transform="translate(286,75)"/>
<path d="M0 0 C1.92585938 0.14888672 1.92585938 0.14888672 3.890625 0.30078125 C14.52033142 1.36590365 14.52033142 1.36590365 18.625 3.0625 C22.94584539 4.78073092 27.3320049 6.24097695 31.75 7.6875 C32.74 8.0175 33.73 8.3475 34.75 8.6875 C34.75 9.3475 34.75 10.0075 34.75 10.6875 C36.4 10.6875 38.05 10.6875 39.75 10.6875 C39.75 11.3475 39.75 12.0075 39.75 12.6875 C40.30816406 12.79191406 40.86632812 12.89632812 41.44140625 13.00390625 C48.87620407 15.20541153 55.52830554 21.13082291 61.6875 25.75 C62.23075928 26.14888428 62.77401855 26.54776855 63.33374023 26.95874023 C68.66956602 31.04552602 71.46011259 36.1400647 74.6875 41.9140625 C75.75859814 43.70185131 76.93630175 45.33434233 78.1875 47 C86.56483901 58.52844817 92.45653133 73.49818862 93.50390625 87.6484375 C93.53619224 89.67945453 93.53619224 89.67945453 94.75 90.6875 C94.99506257 94.61926896 94.97867104 98.5551342 94.99023438 102.49389648 C94.9997748 104.4537381 95.03087745 106.41343717 95.0625 108.37304688 C95.10546199 118.91484423 93.86565726 128.345865 88.75 137.6875 C88.46898437 138.54988281 88.18796875 139.41226563 87.8984375 140.30078125 C86.4800677 144.48352486 84.73770736 148.46972269 82.9375 152.5 C82.58365234 153.29519043 82.22980469 154.09038086 81.86523438 154.90966797 C79.42225097 160.33963245 76.78778989 165.56122956 73.75 170.6875 C73.09 170.6875 72.43 170.6875 71.75 170.6875 C71.63140625 171.25984375 71.5128125 171.8321875 71.390625 172.421875 C69.59894855 178.75829171 65.28367376 184.54772623 61.765625 190.05859375 C60.69589988 191.71758742 60.69589988 191.71758742 59.75 193.6875 C59.09 193.6875 58.43 193.6875 57.75 193.6875 C57.59337891 194.51507813 57.59337891 194.51507813 57.43359375 195.359375 C56.60439616 198.18338509 55.3220035 200.41304916 53.8125 202.9375 C53.28785156 203.82953125 52.76320313 204.7215625 52.22265625 205.640625 C51.49369141 206.65382813 51.49369141 206.65382813 50.75 207.6875 C50.09 207.6875 49.43 207.6875 48.75 207.6875 C48.523125 208.533125 48.29625 209.37875 48.0625 210.25 C46.55761382 214.19136856 44.62296745 217.57511859 41.75 220.6875 C41.09 220.6875 40.43 220.6875 39.75 220.6875 C39.646875 221.285625 39.54375 221.88375 39.4375 222.5 C38.65088144 225.00287724 37.61454169 225.90064755 35.75 227.6875 C35.42 228.6775 35.09 229.6675 34.75 230.6875 C34.09 230.6875 33.43 230.6875 32.75 230.6875 C32.481875 231.409375 32.21375 232.13125 31.9375 232.875 C30.75098638 235.68516383 29.47514361 238.17166557 27.75 240.6875 C27.09 240.6875 26.43 240.6875 25.75 240.6875 C25.75 241.3475 25.75 242.0075 25.75 242.6875 C25.09 242.6875 24.43 242.6875 23.75 242.6875 C23.523125 243.533125 23.29625 244.37875 23.0625 245.25 C21.55761382 249.19136856 19.62296745 252.57511859 16.75 255.6875 C16.09 255.6875 15.43 255.6875 14.75 255.6875 C14.75 256.6775 14.75 257.6675 14.75 258.6875 C14.09 258.6875 13.43 258.6875 12.75 258.6875 C12.5025 259.38875 12.255 260.09 12 260.8125 C10.57819762 264.08264548 8.87753712 266.828622 6.75 269.6875 C6.09 269.6875 5.43 269.6875 4.75 269.6875 C4.09 271.3375 3.43 272.9875 2.75 274.6875 C2.09 274.6875 1.43 274.6875 0.75 274.6875 C0.255 276.6675 0.255 276.6675 -0.25 278.6875 C-0.91 278.6875 -1.57 278.6875 -2.25 278.6875 C-2.6521875 279.80125 -2.6521875 279.80125 -3.0625 280.9375 C-4.20276751 283.57811949 -5.34380306 285.54302844 -7.25 287.6875 C-7.91 287.6875 -8.57 287.6875 -9.25 287.6875 C-10.50461956 285.17826087 -10.37697963 283.46648596 -10.37939453 280.65869141 C-10.38254669 279.61065338 -10.38569885 278.56261536 -10.38894653 277.4828186 C-10.3869223 276.34637909 -10.38489807 275.20993958 -10.3828125 274.0390625 C-10.38376923 272.87498871 -10.38472595 271.71091492 -10.38571167 270.51156616 C-10.38639324 268.04514512 -10.38454059 265.5787223 -10.38037109 263.11230469 C-10.37503215 259.33524539 -10.38031195 255.55830553 -10.38671875 251.78125 C-10.38605778 249.38802057 -10.38477621 246.99479122 -10.3828125 244.6015625 C-10.38483673 243.46917145 -10.38686096 242.3367804 -10.38894653 241.17007446 C-10.38579437 240.11573212 -10.38264221 239.06138977 -10.37939453 237.97509766 C-10.37859894 237.04847321 -10.37780334 236.12184875 -10.37698364 235.16714478 C-10.25899062 232.8630623 -9.90012546 230.89399008 -9.25 228.6875 C-6.23782888 229.33199607 -3.73344164 230.33772182 -1 231.75 C-0.29359375 232.11222656 0.4128125 232.47445312 1.140625 232.84765625 C1.67171875 233.12480469 2.2028125 233.40195312 2.75 233.6875 C2.605625 233.03523437 2.46125 232.38296875 2.3125 231.7109375 C0.18060498 221.67326512 0.18060498 221.67326512 0.75 217.6875 C2.625 215.3125 2.625 215.3125 4.75 213.6875 C5.41 213.6875 6.07 213.6875 6.75 213.6875 C6.75 213.0275 6.75 212.3675 6.75 211.6875 C8.07 211.3575 9.39 211.0275 10.75 210.6875 C10.75 209.6975 10.75 208.7075 10.75 207.6875 C10.08613281 207.71070313 9.42226563 207.73390625 8.73828125 207.7578125 C-1.15926652 207.96009815 -1.15926652 207.96009815 -4.25 205.6875 C-6.8300739 201.33628626 -8.25 197.77654296 -8.25 192.6875 C-8.91 192.6875 -9.57 192.6875 -10.25 192.6875 C-10.25 185.0975 -10.25 177.5075 -10.25 169.6875 C-6.29 169.6875 -2.33 169.6875 1.75 169.6875 C1.75 169.0275 1.75 168.3675 1.75 167.6875 C5.38 167.3575 9.01 167.0275 12.75 166.6875 C12.75 166.0275 12.75 165.3675 12.75 164.6875 C15.06 164.3575 17.37 164.0275 19.75 163.6875 C19.75 162.6975 19.75 161.7075 19.75 160.6875 C20.74 160.6875 21.73 160.6875 22.75 160.6875 C22.75 160.0275 22.75 159.3675 22.75 158.6875 C23.925625 158.1925 25.10125 157.6975 26.3125 157.1875 C30.60870895 155.0622477 33.22088993 152.28528229 36.20703125 148.58984375 C37.63322411 146.83147432 39.14696311 145.28177713 40.75 143.6875 C41.430625 142.800625 42.11125 141.91375 42.8125 141 C43.451875 140.236875 44.09125 139.47375 44.75 138.6875 C45.41 138.6875 46.07 138.6875 46.75 138.6875 C46.853125 137.800625 46.95625 136.91375 47.0625 136 C47.77335841 132.57495491 48.88081165 130.60343383 50.75 127.6875 C53.22711574 122.87088607 53.47363831 118.01374351 53.75 112.6875 C53.78931641 111.98109375 53.82863281 111.2746875 53.86914062 110.546875 C54.65687506 94.41834623 52.94281853 80.12646527 43.0078125 66.88671875 C41.75 64.6875 41.75 64.6875 41.7421875 62.70703125 C43.21317371 59.75935733 45.346399 57.92475008 47.75 55.6875 C49.50123308 53.95958216 51.25124698 52.23042776 53 50.5 C53.87140625 49.64019531 54.7428125 48.78039062 55.640625 47.89453125 C57.77994238 45.87318934 57.77994238 45.87318934 58.75 43.6875 C59.41 43.6875 60.07 43.6875 60.75 43.6875 C60.935625 42.759375 60.935625 42.759375 61.125 41.8125 C61.75 39.6875 61.75 39.6875 63.75 37.6875 C63.75 36.0375 63.75 34.3875 63.75 32.6875 C58.305 32.1925 58.305 32.1925 52.75 31.6875 C52.09 33.0075 51.43 34.3275 50.75 35.6875 C48.2890625 37.65234375 48.2890625 37.65234375 45.375 39.625 C41.40624231 42.31541121 38.71130581 44.93694749 35.75 48.6875 C35.09 48.6875 34.43 48.6875 33.75 48.6875 C33.42 49.6775 33.09 50.6675 32.75 51.6875 C27.40691997 52.19636476 25.01168888 50.81273852 20.75 47.6875 C19.265 47.1925 19.265 47.1925 17.75 46.6875 C17.75 46.0275 17.75 45.3675 17.75 44.6875 C14.78 44.0275 11.81 43.3675 8.75 42.6875 C8.75 42.0275 8.75 41.3675 8.75 40.6875 C7.76 40.6875 6.77 40.6875 5.75 40.6875 C5.75 40.0275 5.75 39.3675 5.75 38.6875 C4.76257813 38.71070313 3.77515625 38.73390625 2.7578125 38.7578125 C1.47648437 38.77585938 0.19515625 38.79390625 -1.125 38.8125 C-2.40117187 38.83570313 -3.67734375 38.85890625 -4.9921875 38.8828125 C-8.25 38.6875 -8.25 38.6875 -10.25 36.6875 C-10.46187981 34.05830697 -10.55398254 31.53703585 -10.55078125 28.90625 C-10.55506638 28.13696167 -10.5593515 27.36767334 -10.56376648 26.57507324 C-10.56951257 24.94768255 -10.57000798 23.32026616 -10.56567383 21.69287109 C-10.56251222 19.19714787 -10.58597358 16.70260793 -10.61132812 14.20703125 C-10.61360087 12.62760567 -10.61430473 11.04817689 -10.61328125 9.46875 C-10.622491 8.7197644 -10.63170074 7.97077881 -10.64118958 7.19909668 C-10.62231445 5.09570312 -10.62231445 5.09570312 -10.25 1.6875 C-6.40281331 -0.87729113 -4.55693214 -0.37671849 0 0 Z " fill="#188853" transform="translate(263.25,70.3125)"/>
<path d="M0 0 C0.65863037 0.14848389 1.31726074 0.29696777 1.99584961 0.44995117 C6.68578846 1.6882888 9.11312541 3.75447666 12.3125 7.3125 C13.116875 7.76625 13.92125 8.22 14.75 8.6875 C17.82596014 10.63810887 19.72135105 12.9636752 21.98046875 15.7890625 C23.25614001 17.44222374 23.25614001 17.44222374 25.3125 18.3125 C26.05229874 20.19562406 26.78261729 22.08329311 27.453125 23.9921875 C28.60268834 27.09600853 30.01482763 30.05611343 31.4453125 33.0390625 C35.76074943 44.35250527 34.0790977 59.88828149 29.22265625 70.75 C28.125 72.6875 28.125 72.6875 26.3125 75.3125 C25.6525 75.3125 24.9925 75.3125 24.3125 75.3125 C24.20808594 75.89515625 24.10367188 76.4778125 23.99609375 77.078125 C23.20956383 79.64895423 22.13684109 81.0465058 20.375 83.0625 C19.58802734 83.98289063 19.58802734 83.98289063 18.78515625 84.921875 C17.3125 86.3125 17.3125 86.3125 15.3125 86.3125 C15.3125 86.9725 15.3125 87.6325 15.3125 88.3125 C3.0925947 98.78670454 -11.73741342 101.1366439 -27.3125 100.0625 C-38.11822167 97.66122852 -49.073092 91.18081541 -55.6875 82.3125 C-56.265 81.755625 -56.8425 81.19875 -57.4375 80.625 C-58.6875 79.3125 -58.6875 79.3125 -58.6875 77.3125 C-59.3475 77.3125 -60.0075 77.3125 -60.6875 77.3125 C-60.95304688 76.55324219 -61.21859375 75.79398437 -61.4921875 75.01171875 C-61.84539062 74.01785156 -62.19859375 73.02398437 -62.5625 72 C-62.91054687 71.01386719 -63.25859375 70.02773437 -63.6171875 69.01171875 C-64.64055924 66.15655623 -64.64055924 66.15655623 -66.6875 63.3125 C-70.26639203 50.85609657 -68.46272384 36.66772884 -62.6875 25.3125 C-62.17960938 24.24 -61.67171875 23.1675 -61.1484375 22.0625 C-59.60731319 19.16156013 -58.31017708 18.1737547 -55.6875 16.3125 C-54.4358533 14.22915365 -54.4358533 14.22915365 -53.6875 12.3125 C-53.0275 12.3125 -52.3675 12.3125 -51.6875 12.3125 C-51.6875 11.6525 -51.6875 10.9925 -51.6875 10.3125 C-49.1328125 8.5859375 -49.1328125 8.5859375 -45.8125 6.6875 C-44.72195312 6.05585938 -43.63140625 5.42421875 -42.5078125 4.7734375 C-39.6875 3.3125 -39.6875 3.3125 -37.6875 3.3125 C-37.6875 2.6525 -37.6875 1.9925 -37.6875 1.3125 C-25.68431664 -3.07890855 -12.33819001 -2.93137832 0 0 Z " fill="#1A3B5A" transform="translate(270.6875,125.6875)"/>
<path d="M0 0 C0.6875 2.3125 0.6875 2.3125 1 5 C-0.375 6.625 -0.375 6.625 -2 8 C-2.33 8.99 -2.66 9.98 -3 11 C-3.66 11 -4.32 11 -5 11 C-5.24105469 11.56847656 -5.48210937 12.13695313 -5.73046875 12.72265625 C-7.24968088 15.44788908 -9.07418981 17.26690339 -11.3125 19.4375 C-12.50939453 20.61892578 -12.50939453 20.61892578 -13.73046875 21.82421875 C-15.04218555 23.08175103 -16.37017479 24.32359099 -17.73828125 25.51953125 C-19.29231532 26.83661272 -19.29231532 26.83661272 -21 29 C-20.67091924 32.75395833 -19.57127851 34.85438454 -17.25 37.75 C-9.00709612 49.83561028 -8.19648431 63.73847528 -8.8984375 77.89453125 C-8.98096326 79.6053538 -9.01359308 81.3185292 -9.03125 83.03125 C-9.28020864 89.42118834 -11.80874218 94.53493916 -14.625 100.21484375 C-16.0696084 102.98147751 -16.0696084 102.98147751 -17 106 C-17.66 106 -18.32 106 -19 106 C-19.495 107.485 -19.495 107.485 -20 109 C-20.66 109 -21.32 109 -22 109 C-22.226875 109.721875 -22.45375 110.44375 -22.6875 111.1875 C-24.29089425 114.62334482 -26.19701405 116.44616836 -29 119 C-29.56332031 119.53238281 -30.12664062 120.06476563 -30.70703125 120.61328125 C-33.99693845 123.6164863 -36.36099987 125.71884848 -41 126 C-41 126.66 -41 127.32 -41 128 C-41.99 128 -42.98 128 -44 128 C-44 128.99 -44 129.98 -44 131 C-46.31 131.33 -48.62 131.66 -51 132 C-51 132.66 -51 133.32 -51 134 C-54.63 134.33 -58.26 134.66 -62 135 C-62 135.66 -62 136.32 -62 137 C-70.35748222 137.84327749 -78.60197746 138.12190678 -87 138 C-87.33 137.34 -87.66 136.68 -88 136 C-90.70720521 135.30517025 -90.70720521 135.30517025 -93.875 134.875 C-95.47988281 134.62363281 -95.47988281 134.62363281 -97.1171875 134.3671875 C-100.01164233 133.93682476 -100.01164233 133.93682476 -103 134 C-104.34331654 132.00669158 -105.67594012 130.00615134 -107 128 C-108.93330603 126.90833725 -108.93330603 126.90833725 -111 126 C-113.75 123.5 -113.75 123.5 -116 121 C-116 120.34 -116 119.68 -116 119 C-116.66 119 -117.32 119 -118 119 C-118 118.34 -118 117.68 -118 117 C-118.5775 116.773125 -119.155 116.54625 -119.75 116.3125 C-122.58373895 114.65948561 -124.03144113 112.60357787 -126 110 C-126.48339844 109.54496094 -126.96679688 109.08992188 -127.46484375 108.62109375 C-129.26914746 106.71578576 -130.31456735 104.84046959 -131.5 102.5 C-131.9021875 101.7265625 -132.304375 100.953125 -132.71875 100.15625 C-136.52862226 90.77095491 -137.47342565 82.15112902 -137.375 72.0625 C-137.38660156 70.87720703 -137.39820313 69.69191406 -137.41015625 68.47070312 C-137.38417642 60.57716366 -136.28011226 53.55449495 -134 46 C-133.34 46 -132.68 46 -132 46 C-131.81824219 45.25234375 -131.63648438 44.5046875 -131.44921875 43.734375 C-131.19785156 42.74953125 -130.94648438 41.7646875 -130.6875 40.75 C-130.44386719 39.77546875 -130.20023438 38.8009375 -129.94921875 37.796875 C-128.99478552 34.98463552 -128.01145917 33.1717554 -126 31 C-125.34 31 -124.68 31 -124 31 C-123.731875 30.401875 -123.46375 29.80375 -123.1875 29.1875 C-122.00082594 27.00152146 -120.90400887 25.58667406 -119 24 C-118.34 24 -117.68 24 -117 24 C-117 23.34 -117 22.68 -117 22 C-113.53846154 19 -113.53846154 19 -111 19 C-111 18.34 -111 17.68 -111 17 C-105.83970888 14.26029793 -100.72214533 12.64583614 -95.12109375 11.0625 C-92.01683752 10.1548246 -92.01683752 10.1548246 -89.67724609 8.4519043 C-86.52827951 6.74418003 -84.60252631 6.65226883 -81.04296875 6.70703125 C-79.93115234 6.71669922 -78.81933594 6.72636719 -77.67382812 6.73632812 C-76.52333984 6.76146484 -75.37285156 6.78660156 -74.1875 6.8125 C-73.01767578 6.82603516 -71.84785156 6.83957031 -70.64257812 6.85351562 C-67.761248 6.88879722 -64.88086096 6.9380972 -62 7 C-62 7.66 -62 8.32 -62 9 C-61.09636719 9.04898438 -60.19273437 9.09796875 -59.26171875 9.1484375 C-58.08222656 9.22320312 -56.90273438 9.29796875 -55.6875 9.375 C-54.51574219 9.44460937 -53.34398437 9.51421875 -52.13671875 9.5859375 C-49 10 -49 10 -46 12 C-46 12.66 -46 13.32 -46 14 C-45.2575 14.103125 -44.515 14.20625 -43.75 14.3125 C-41 15 -41 15 -39.0625 16.5625 C-37.01113561 18.17642562 -37.01113561 18.17642562 -34.1875 18.6875 C-29.82908226 17.74744912 -28.44866098 15.49519188 -25.7265625 12.1015625 C-22.73459322 8.45975374 -19.31557796 5.77738697 -15.25 3.375 C-12.73102088 2.05231671 -12.73102088 2.05231671 -11 -1 C-7.16749064 -2.84528229 -3.84389569 -1.25665821 0 0 Z M-94 24 C-94 24.66 -94 25.32 -94 26 C-94.825 26.226875 -95.65 26.45375 -96.5 26.6875 C-100.66509486 28.24941057 -104.5000943 30.22850107 -108 33 C-108 33.66 -108 34.32 -108 35 C-108.99 35.33 -109.98 35.66 -111 36 C-112.01866229 37.65532623 -113.01810813 39.32260138 -114 41 C-114.99 41.66 -115.98 42.32 -117 43 C-118.12824595 45.13404857 -118.12824595 45.13404857 -119 47.625 C-119.309375 48.44226563 -119.61875 49.25953125 -119.9375 50.1015625 C-120.288125 51.05804688 -120.63875 52.01453125 -121 53 C-121.2580542 53.58289795 -121.5161084 54.1657959 -121.78198242 54.76635742 C-124.11731085 60.2699227 -124.42431701 65.12725325 -124.3125 71.0625 C-124.31572266 71.92166016 -124.31894531 72.78082031 -124.32226562 73.66601562 C-124.26580914 80.3843378 -123.17508871 86.21704173 -119.9375 92.1875 C-118.53860124 94.77942186 -117.62041755 97.11537821 -117 100 C-116.34 100 -115.68 100 -115 100 C-114.938125 100.556875 -114.87625 101.11375 -114.8125 101.6875 C-112.46346947 108.37320229 -104.5632523 112.2374139 -99 116 C-97.39125 117.1446875 -97.39125 117.1446875 -95.75 118.3125 C-86.02073514 124.28273071 -72.67558706 124.31768622 -61.75390625 121.8984375 C-54.63619144 119.57634614 -46.63153162 115.97960555 -41 111 C-41 110.34 -41 109.68 -41 109 C-40.443125 108.79375 -39.88625 108.5875 -39.3125 108.375 C-36.00396768 106.40776457 -34.2844372 104.10937286 -32 101 C-32 100.01 -32 99.02 -32 98 C-31.34 98 -30.68 98 -30 98 C-22.86336939 87.66419015 -21.64233556 73.90592203 -23.31640625 61.69140625 C-24.24107337 57.41794471 -26.02309081 53.76249519 -28.06640625 49.9453125 C-29 48 -29 48 -29.9375 44.3125 C-31.21552623 40.32806528 -32.88945934 38.74884989 -36 36 C-37.175625 34.7315625 -37.175625 34.7315625 -38.375 33.4375 C-40.5416179 31.42564052 -42.21452512 30.2095984 -44.75 28.8125 C-48 27 -48 27 -49 25 C-63.65831864 19.83091466 -79.14246956 19.04748985 -94 24 Z " fill="#F0F7F5" transform="translate(327,103)"/>
<path d="M0 0 C5.20363676 1.8769057 6.36257101 6.08821918 8.60546875 10.8125 C13 20.85714286 13 20.85714286 13 26 C13.66 26 14.32 26 15 26 C17 28 17 28 17.125 30.625 C17.08375 31.40875 17.0425 32.1925 17 33 C17.66 33 18.32 33 19 33 C19 34.32 19 35.64 19 37 C19.66 37 20.32 37 21 37 C24 42.625 24 42.625 24 46 C24.66 46 25.32 46 26 46 C28.04169485 48.90548882 29 50.40142046 29 54 C29.66 54 30.32 54 31 54 C31 54.66 31 55.32 31 56 C31.66 56 32.32 56 33 56 C33.84114171 57.43294498 34.67265687 58.87154405 35.5 60.3125 C35.9640625 61.11300781 36.428125 61.91351563 36.90625 62.73828125 C38 65 38 65 38 68 C38.66 68 39.32 68 40 68 C41.63429751 70.0944968 43.14167234 72.17782091 44.625 74.375 C45.04523438 74.97828125 45.46546875 75.5815625 45.8984375 76.203125 C49 80.73462865 49 80.73462865 49 83 C49.66 83 50.32 83 51 83 C52.86558515 86.7311703 52.58899088 91.17481315 51.328125 95.08203125 C50.60916165 96.74717749 49.81112518 98.37774964 49 100 C48.34 100 47.68 100 47 100 C46.34 101.65 45.68 103.3 45 105 C44.34 105 43.68 105 43 105 C42.690625 105.78375 42.38125 106.5675 42.0625 107.375 C41 110 41 110 40 112 C39.34 112 38.68 112 38 112 C37.773125 112.556875 37.54625 113.11375 37.3125 113.6875 C35.62622733 116.65855185 33.469646 118.64522125 31 121 C30.113125 121.928125 29.22625 122.85625 28.3125 123.8125 C26 126 26 126 24 126 C24 126.66 24 127.32 24 128 C21.84187078 129.5774398 19.69747739 131.02014842 17.4375 132.4375 C16.82841797 132.83259766 16.21933594 133.22769531 15.59179688 133.63476562 C5.58323367 140 5.58323367 140 0 140 C-1.15734564 137.68530872 -1.13677618 136.33566995 -1.15821838 133.75842285 C-1.17290161 132.42232468 -1.17290161 132.42232468 -1.18788147 131.05923462 C-1.19363693 130.0786911 -1.1993924 129.09814758 -1.20532227 128.08789062 C-1.21522186 127.05646942 -1.22512146 126.02504822 -1.23532104 124.96237183 C-1.26707531 121.52702159 -1.29178616 118.09165821 -1.31640625 114.65625 C-1.33700173 112.25516422 -1.35799884 109.85408185 -1.37937927 107.45300293 C-1.42343474 102.39544585 -1.46431859 97.33787683 -1.50268555 92.28027344 C-1.55129427 85.87296025 -1.60491662 79.4657035 -1.66066074 73.05844879 C-1.71423381 66.88272952 -1.76551012 60.70699184 -1.81640625 54.53125 C-1.82596407 53.38554031 -1.83552189 52.23983063 -1.84536934 51.05940247 C-1.89923188 44.48751549 -1.94258416 37.91567332 -1.97728348 31.34365845 C-2.00153245 27.77443711 -2.04148857 24.20555158 -2.08151245 20.63647461 C-2.10023261 18.24658513 -2.1185653 15.85669257 -2.13647461 13.46679688 C-2.15254289 12.34575813 -2.16861116 11.22471939 -2.18516636 10.06970978 C-2.19338366 8.52548969 -2.19338366 8.52548969 -2.20176697 6.95007324 C-2.21107207 6.04015373 -2.22037718 5.13023422 -2.22996426 4.19274139 C-2 2 -2 2 0 0 Z " fill="#123859" transform="translate(150,217)"/>
<path d="M0 0 C1.13598633 0.00483398 1.13598633 0.00483398 2.29492188 0.00976562 C3.47344727 0.02233398 3.47344727 0.02233398 4.67578125 0.03515625 C5.47306641 0.03966797 6.27035156 0.04417969 7.09179688 0.04882812 C9.05732382 0.06059775 11.0228121 0.07853277 12.98828125 0.09765625 C12.64277222 0.96535645 12.64277222 0.96535645 12.2902832 1.85058594 C9.88822767 8.01915228 9.65700252 13.5334296 9.98828125 20.09765625 C10.77203125 20.40703125 11.55578125 20.71640625 12.36328125 21.03515625 C14.98828125 22.09765625 14.98828125 22.09765625 16.98828125 23.09765625 C22.29187032 23.50562464 25.37477263 22.67263781 29.98828125 20.09765625 C30.64828125 20.09765625 31.30828125 20.09765625 31.98828125 20.09765625 C31.98828125 19.43765625 31.98828125 18.77765625 31.98828125 18.09765625 C32.64828125 18.09765625 33.30828125 18.09765625 33.98828125 18.09765625 C35.80777101 21.73663576 35.17298578 26.02924913 35.17578125 30.03515625 C35.18802734 30.95490234 35.20027344 31.87464844 35.21289062 32.82226562 C35.21482422 33.70591797 35.21675781 34.58957031 35.21875 35.5 C35.22285889 36.30945068 35.22696777 37.11890137 35.23120117 37.95288086 C34.98828125 40.09765625 34.98828125 40.09765625 32.98828125 43.09765625 C32.32828125 43.09765625 31.66828125 43.09765625 30.98828125 43.09765625 C30.98828125 43.75765625 30.98828125 44.41765625 30.98828125 45.09765625 C30.32828125 45.09765625 29.66828125 45.09765625 28.98828125 45.09765625 C28.92640625 45.65453125 28.86453125 46.21140625 28.80078125 46.78515625 C26.94416484 52.06937218 21.70357875 55.45708965 16.98828125 58.09765625 C13.86328125 58.84765625 13.86328125 58.84765625 9.98828125 59.09765625 C9.08851563 59.16082031 8.18875 59.22398437 7.26171875 59.2890625 C-0.92706149 59.6170369 -8.40933289 58.55372296 -15.11328125 53.51953125 C-21.22250992 47.74825991 -24.57664698 41.53961956 -25.25 33.1171875 C-25.43381282 25.17453872 -24.86092047 17.61325724 -19.5 11.32421875 C-18.01171875 10.09765625 -18.01171875 10.09765625 -16.01171875 10.09765625 C-15.82609375 9.54078125 -15.64046875 8.98390625 -15.44921875 8.41015625 C-12.08888508 3.00440208 -6.3023875 -0.04738637 0 0 Z " fill="#13395A" transform="translate(248.01171875,144.90234375)"/>
<path d="M0 0 C1.45696289 -0.01740234 1.45696289 -0.01740234 2.94335938 -0.03515625 C11.8479786 0.00146316 11.8479786 0.00146316 15.8125 3.375 C16.3075 4.3959375 16.3075 4.3959375 16.8125 5.4375 C18.22025669 8.16502859 20.0000284 8.30358225 22.8125 9.375 C24.16558313 10.68828657 25.50120078 12.01999081 26.8125 13.375 C27.8025 13.705 28.7925 14.035 29.8125 14.375 C36.61845291 23.08529497 36.95021144 32.67879509 36.07226562 43.26513672 C35.12873378 50.92867264 31.19091013 57.87365478 25.8125 63.375 C25.1525 63.375 24.4925 63.375 23.8125 63.375 C23.8125 64.035 23.8125 64.695 23.8125 65.375 C20.74134715 68.32803159 17.9791604 68.90151586 13.8125 69.375 C13.3175 70.86 13.3175 70.86 12.8125 72.375 C6.64998371 74.97695132 0.40576599 74.56987486 -6.1875 74.375 C-6.1875 73.715 -6.1875 73.055 -6.1875 72.375 C-6.97125 72.478125 -7.755 72.58125 -8.5625 72.6875 C-15.45345683 72.093452 -22.23908168 68.15847104 -27.1875 63.375 C-27.1875 62.715 -27.1875 62.055 -27.1875 61.375 C-27.8475 61.375 -28.5075 61.375 -29.1875 61.375 C-29.1875 60.715 -29.1875 60.055 -29.1875 59.375 C-29.79078125 59.17390625 -30.3940625 58.9728125 -31.015625 58.765625 C-35.69778216 55.76769704 -37.03078365 48.63539803 -38.1875 43.375 C-39.31914509 32.17285667 -37.22333297 23.7874004 -31.1875 14.375 C-28.8125 11.6875 -28.8125 11.6875 -26.1875 9.375 C-25.66285156 8.87097656 -25.13820312 8.36695313 -24.59765625 7.84765625 C-24.02917969 7.32042969 -23.46070313 6.79320312 -22.875 6.25 C-22.36324219 5.77304688 -21.85148437 5.29609375 -21.32421875 4.8046875 C-14.51335933 0.24751282 -7.95188716 -0.09612758 0 0 Z M-22.1875 15.375 C-22.1875 16.035 -22.1875 16.695 -22.1875 17.375 C-22.80625 17.66375 -23.425 17.9525 -24.0625 18.25 C-28.25010037 20.4669649 -29.21030156 23.29836988 -30.58203125 27.6015625 C-32.54954369 36.61403882 -31.84064183 45.56040693 -26.875 53.4375 C-21.93650907 60.90928023 -16.90985908 64.29824784 -8.1875 66.375 C1.28454714 67.35237047 10.71430816 66.71203068 18.37109375 60.671875 C20.18043012 59.0439626 21.60938406 57.49814578 22.8125 55.375 C22.8125 54.385 22.8125 53.395 22.8125 52.375 C23.4725 52.375 24.1325 52.375 24.8125 52.375 C24.8125 51.715 24.8125 51.055 24.8125 50.375 C25.8025 50.045 26.7925 49.715 27.8125 49.375 C29.00057993 46.99884014 28.94164522 45.5238258 28.9453125 42.875 C28.94660156 41.988125 28.94789063 41.10125 28.94921875 40.1875 C28.94341797 38.7953125 28.94341797 38.7953125 28.9375 37.375 C28.94136719 36.446875 28.94523437 35.51875 28.94921875 34.5625 C28.94792969 33.675625 28.94664062 32.78875 28.9453125 31.875 C28.94362061 30.65296875 28.94362061 30.65296875 28.94189453 29.40625 C28.94051503 27.30649048 28.94051503 27.30649048 27.8125 25.375 C27.1525 25.375 26.4925 25.375 25.8125 25.375 C25.8125 26.035 25.8125 26.695 25.8125 27.375 C20.54660921 29.50982059 16.57568377 30.77246095 10.8125 30.375 C8 28.875 8 28.875 5.8125 27.375 C5.1525 27.375 4.4925 27.375 3.8125 27.375 C3.44633298 15.94245182 3.44633298 15.94245182 5.8125 10.375 C6.1425 9.385 6.4725 8.395 6.8125 7.375 C-9.29423085 6.48228489 -9.29423085 6.48228489 -22.1875 15.375 Z " fill="#41617C" transform="translate(254.1875,137.625)"/>
<path d="M0 0 C5.20363676 1.8769057 6.36257101 6.08821918 8.60546875 10.8125 C13 20.85714286 13 20.85714286 13 26 C13.66 26 14.32 26 15 26 C17 28 17 28 17.125 30.625 C17.08375 31.40875 17.0425 32.1925 17 33 C17.66 33.33 18.32 33.66 19 34 C18.34 34 17.68 34 17 34 C17.33 35.98 17.66 37.96 18 40 C17.34 40 16.68 40 16 40 C14 37 14 37 14 34 C13.34 34 12.68 34 12 34 C11.73445312 33.39671875 11.46890625 32.7934375 11.1953125 32.171875 C10.66550781 30.97304687 10.66550781 30.97304687 10.125 29.75 C9.77695313 28.96109375 9.42890625 28.1721875 9.0703125 27.359375 C8.38797423 25.85524246 7.67705037 24.36352994 6.9296875 22.890625 C6 21 6 21 5 18 C4.34 18 3.68 18 3 18 C3 56.28 3 94.56 3 134 C4.98 133.67 6.96 133.34 9 133 C9 133.66 9 134.32 9 135 C8.34 135 7.68 135 7 135 C6.505 136.98 6.505 136.98 6 139 C4.02 139.33 2.04 139.66 0 140 C-1.15734564 137.68530872 -1.13677618 136.33566995 -1.15821838 133.75842285 C-1.17290161 132.42232468 -1.17290161 132.42232468 -1.18788147 131.05923462 C-1.19363693 130.0786911 -1.1993924 129.09814758 -1.20532227 128.08789062 C-1.21522186 127.05646942 -1.22512146 126.02504822 -1.23532104 124.96237183 C-1.26707531 121.52702159 -1.29178616 118.09165821 -1.31640625 114.65625 C-1.33700173 112.25516422 -1.35799884 109.85408185 -1.37937927 107.45300293 C-1.42343474 102.39544585 -1.46431859 97.33787683 -1.50268555 92.28027344 C-1.55129427 85.87296025 -1.60491662 79.4657035 -1.66066074 73.05844879 C-1.71423381 66.88272952 -1.76551012 60.70699184 -1.81640625 54.53125 C-1.82596407 53.38554031 -1.83552189 52.23983063 -1.84536934 51.05940247 C-1.89923188 44.48751549 -1.94258416 37.91567332 -1.97728348 31.34365845 C-2.00153245 27.77443711 -2.04148857 24.20555158 -2.08151245 20.63647461 C-2.10023261 18.24658513 -2.1185653 15.85669257 -2.13647461 13.46679688 C-2.15254289 12.34575813 -2.16861116 11.22471939 -2.18516636 10.06970978 C-2.19338366 8.52548969 -2.19338366 8.52548969 -2.20176697 6.95007324 C-2.21107207 6.04015373 -2.22037718 5.13023422 -2.22996426 4.19274139 C-2 2 -2 2 0 0 Z " fill="#122944" transform="translate(150,217)"/>
<path d="M0 0 C0.99 0.33 1.98 0.66 3 1 C3.6591508 2.79323558 4.25414363 4.61036788 4.8125 6.4375 C5.93731577 9.51280551 5.93731577 9.51280551 8 12 C12.6425356 13.58268259 17.11520522 13.91406992 22 14 C22 14.99 22 15.98 22 17 C20.68 17.33 19.36 17.66 18 18 C18 18.66 18 19.32 18 20 C16.125 22.125 16.125 22.125 14 24 C13.34 24 12.68 24 12 24 C12.144375 24.65226562 12.28875 25.30453125 12.4375 25.9765625 C13.44627294 30.72620177 14.25715306 35.11409188 14 40 C9.99273754 39.38349808 7.32135444 37.21423629 4 35 C2.14590367 34.07927396 2.14590367 34.07927396 0 34 C-2.62403652 35.18521779 -2.62403652 35.18521779 -5.1875 36.9375 C-9.95216401 40 -9.95216401 40 -11 40 C-10.9071875 38.92621094 -10.814375 37.85242188 -10.71875 36.74609375 C-9.99712603 28.66996401 -9.99712603 28.66996401 -12.78125 21.37890625 C-14.77990837 19.68638041 -16.71083348 18.26721718 -19 17 C-18.505 15.515 -18.505 15.515 -18 14 C-11.565 13.505 -11.565 13.505 -5 13 C-4.360625 11.040625 -3.72125 9.08125 -3.0625 7.0625 C-1.125 1.125 -1.125 1.125 0 0 Z " fill="#F3FBF7" transform="translate(252,264)"/>
<path d="M0 0 C2.82626871 2.66001761 3.62744621 4.6334456 3.875 8.5 C3.54441674 13.25752425 1.90854961 15.8845467 -1.33203125 19.28515625 C-4.86267105 22.09420543 -8.62115054 22.00901891 -12.9375 21.5625 C-15.8125 19.125 -15.8125 19.125 -17.9375 16.5625 C-18.2675 16.2325 -18.5975 15.9025 -18.9375 15.5625 C-19.1165571 13.48426348 -19.20557871 11.39796283 -19.25 9.3125 C-19.28738281 8.17296875 -19.32476562 7.0334375 -19.36328125 5.859375 C-18.85638646 1.93442821 -17.67814311 0.35427452 -14.9375 -2.4375 C-9.92385222 -4.85788169 -4.30638572 -3.08595252 0 0 Z " fill="#E9F0F2" transform="translate(277.9375,147.4375)"/>
<path d="M0 0 C3.49873271 1.39655297 4.70891831 2.71260484 6.25 6.125 C6.58515625 6.84945312 6.9203125 7.57390625 7.265625 8.3203125 C7.62914062 9.15175781 7.62914062 9.15175781 8 10 C6.02 10 4.04 10 2 10 C1.67 52.9 1.34 95.8 1 140 C-1.40668547 137.59331453 -1.25503809 137.04463007 -1.2784729 133.75842285 C-1.28963638 132.86769073 -1.30079987 131.97695862 -1.31230164 131.05923462 C-1.31446182 130.0786911 -1.31662201 129.09814758 -1.31884766 128.08789062 C-1.32889328 127.05646942 -1.3389389 126.02504822 -1.34928894 124.96237183 C-1.38034303 121.52700361 -1.39724338 118.09171513 -1.4140625 114.65625 C-1.43279081 112.255161 -1.45236545 109.85407846 -1.4727478 107.45300293 C-1.52427976 101.09749287 -1.56373255 94.74196066 -1.60089111 88.38635254 C-1.64038133 82.0205301 -1.69200546 75.65480789 -1.7421875 69.2890625 C-1.92183665 45.71912242 -1.92183665 45.71912242 -1.96710205 34.57250977 C-1.98608156 29.92684284 -2.02804353 25.28189291 -2.07928467 20.63647461 C-2.09788391 18.2465841 -2.11622285 15.85669156 -2.13427734 13.46679688 C-2.15047937 12.34575813 -2.1666814 11.22471939 -2.1833744 10.06970978 C-2.18903608 9.04022972 -2.19469776 8.01074966 -2.20053101 6.95007324 C-2.21005987 6.04015373 -2.21958874 5.13023422 -2.22940636 4.19274139 C-2 2 -2 2 0 0 Z " fill="#364056" transform="translate(150,217)"/>
<path d="M0 0 C2.79872437 2.52788007 4.45773019 4.20411134 5 8 C5.66 8 6.32 8 7 8 C7.32613281 8.69867188 7.65226563 9.39734375 7.98828125 10.1171875 C8.64376953 11.48230469 8.64376953 11.48230469 9.3125 12.875 C9.95638672 14.23238281 9.95638672 14.23238281 10.61328125 15.6171875 C11.9199388 18.26449476 11.9199388 18.26449476 15 20 C15 20.99 15 21.98 15 23 C15.66 23 16.32 23 17 23 C21 29 21 29 21 31 C21.99 31.33 22.98 31.66 24 32 C24.12375 33.423125 24.12375 33.423125 24.25 34.875 C24.4975 35.90625 24.745 36.9375 25 38 C26.84971696 39.05021103 26.84971696 39.05021103 29 40 C33 45.33333333 33 45.33333333 33 48 C33.66 48 34.32 48 35 48 C37 51 37 51 37 55 C37.66 55 38.32 55 39 55 C39.99 56.98 40.98 58.96 42 61 C41.01 61.33 40.02 61.66 39 62 C38.505 60.02 38.505 60.02 38 58 C37.34 58 36.68 58 36 58 C36 57.01 36 56.02 36 55 C35.34 55 34.68 55 34 55 C34 54.34 34 53.68 34 53 C33.34 53 32.68 53 32 53 C31.67 51.35 31.34 49.7 31 48 C30.34 48 29.68 48 29 48 C29 47.34 29 46.68 29 46 C28.34 46 27.68 46 27 46 C27 45.01 27 44.02 27 43 C26.34 43 25.68 43 25 43 C23.7109375 41.3203125 23.7109375 41.3203125 22.375 39.125 C21.92898437 38.40570313 21.48296875 37.68640625 21.0234375 36.9453125 C20 35 20 35 20 33 C19.34 33 18.68 33 18 33 C15 28.61538462 15 28.61538462 15 26 C14.34 26 13.68 26 13 26 C13 25.01 13 24.02 13 23 C12.34 23 11.68 23 11 23 C11 22.01 11 21.02 11 20 C10.34 20 9.68 20 9 20 C6.25624329 17.04518508 6 16.22528092 6 12 C5.34 12 4.68 12 4 12 C1 7.61538462 1 7.61538462 1 5 C0.34 5 -0.32 5 -1 5 C-0.67 3.35 -0.34 1.7 0 0 Z " fill="#67A96C" transform="translate(188,264)"/>
<path d="M0 0 C1.98 0 3.96 0 6 0 C6 0.66 6 1.32 6 2 C6.83724609 2.15662109 6.83724609 2.15662109 7.69140625 2.31640625 C15.17535514 4.53246557 21.83581821 10.50376441 28 15.1875 C28.55163818 15.60314209 29.10327637 16.01878418 29.67163086 16.44702148 C32.58455883 18.70031658 35.05746701 20.8501288 37 24 C37 24.66 37 25.32 37 26 C36.236875 26.268125 35.47375 26.53625 34.6875 26.8125 C32.12619116 27.94424112 30.80307062 28.91223401 29 31 C28.34 30.67 27.68 30.34 27 30 C27.495 29.608125 27.99 29.21625 28.5 28.8125 C30.53130643 26.75011995 30.53130643 26.75011995 30 22 C26.37 21.67 22.74 21.34 19 21 C18.34 22.32 17.68 23.64 17 25 C14.875 26.25 14.875 26.25 13 27 C16 23 19 19 22 15 C21.2575 14.566875 20.515 14.13375 19.75 13.6875 C17 12 17 12 14.9375 10.375 C12.92923781 8.94978167 11.40426796 8.42933356 9 8 C9 7.34 9 6.68 9 6 C6.03 5.01 3.06 4.02 0 3 C0 2.01 0 1.02 0 0 Z " fill="#368663" transform="translate(297,81)"/>
<path d="M0 0 C0.7425 0.0825 1.485 0.165 2.25 0.25 C0.01953094 4.2853881 -2.62188252 7.49551593 -5.75 10.875 C-7.049375 12.28652344 -7.049375 12.28652344 -8.375 13.7265625 C-9.70583224 15.14057176 -11.05939032 16.5363951 -12.484375 17.85546875 C-14.08535348 19.43328177 -14.08535348 19.43328177 -15 22.9375 C-16.49604089 27.31301744 -18.99208864 30.05167111 -22.2265625 33.29296875 C-24.02088152 35.59797857 -24.38353976 37.38269623 -24.75 40.25 C-25.74 40.25 -26.73 40.25 -27.75 40.25 C-27.24202991 35.9322542 -26.55317221 32.21697886 -24.75 28.25 C-24.09 28.25 -23.43 28.25 -22.75 28.25 C-22.62431641 27.46882813 -22.62431641 27.46882813 -22.49609375 26.671875 C-21.45826677 23.30301257 -19.65854286 20.47327257 -17.8125 17.5 C-17.45220703 16.89800781 -17.09191406 16.29601562 -16.72070312 15.67578125 C-15.78920867 14.16274606 -14.77538164 12.70105131 -13.75 11.25 C-13.09 11.25 -12.43 11.25 -11.75 11.25 C-11.42 10.26 -11.09 9.27 -10.75 8.25 C-10.09 8.25 -9.43 8.25 -8.75 8.25 C-8.5025 7.6725 -8.255 7.095 -8 6.5 C-5.97106564 2.84791816 -4.32341245 0.3930375 0 0 Z " fill="#5AA65F" transform="translate(184.75,97.75)"/>
<path d="M0 0 C0.99 0.495 0.99 0.495 2 1 C1.67 42.25 1.34 83.5 1 126 C4.465 125.01 4.465 125.01 8 124 C8 124.66 8 125.32 8 126 C7.34 126 6.68 126 6 126 C5.505 127.98 5.505 127.98 5 130 C3.35 130.33 1.7 130.66 0 131 C0 87.77 0 44.54 0 0 Z " fill="#0A152D" transform="translate(151,226)"/>
<path d="M0 0 C0.33 0.66 0.66 1.32 1 2 C0.06553465 4.03144641 -0.93224776 6.03533587 -2 8 C-2.66 8 -3.32 8 -4 8 C-3.938125 9.299375 -3.938125 9.299375 -3.875 10.625 C-4 14 -4 14 -4.99121094 16.80688477 C-6.06493886 20.20555066 -6.25831537 22.91001188 -6.265625 26.46484375 C-6.26820313 27.67720703 -6.27078125 28.88957031 -6.2734375 30.13867188 C-6.26570312 31.39228516 -6.25796875 32.64589844 -6.25 33.9375 C-6.25773438 35.18724609 -6.26546875 36.43699219 -6.2734375 37.72460938 C-6.26032227 43.89860277 -6.02178281 49.1647732 -4 55 C-4.375 57.4375 -4.375 57.4375 -5 59 C-9.50853108 49.36813814 -10.30408357 40.59069665 -10.1875 30 C-10.18685547 28.85660156 -10.18621094 27.71320313 -10.18554688 26.53515625 C-10.14062967 18.14062967 -10.14062967 18.14062967 -9 17 C-8.855625 15.88625 -8.71125 14.7725 -8.5625 13.625 C-8 10 -8 10 -6 7 C-5.01 7 -4.02 7 -3 7 C-3 6.01 -3 5.02 -3 4 C-2.34 4 -1.68 4 -1 4 C-0.67 2.68 -0.34 1.36 0 0 Z " fill="#91C694" transform="translate(197,141)"/>
<path d="M0 0 C2.475 0.495 2.475 0.495 5 1 C3.66666667 3.66666667 2.33333333 6.33333333 1 9 C0.34 9 -0.32 9 -1 9 C-1.268125 9.721875 -1.53625 10.44375 -1.8125 11.1875 C-2.99901362 13.99766383 -4.27485639 16.48416557 -6 19 C-6.66 19 -7.32 19 -8 19 C-8 19.66 -8 20.32 -8 21 C-8.66 21 -9.32 21 -10 21 C-10.3403125 22.2684375 -10.3403125 22.2684375 -10.6875 23.5625 C-12.19238618 27.50386856 -14.12703255 30.88761859 -17 34 C-17.66 34 -18.32 34 -19 34 C-19.33 34.99 -19.66 35.98 -20 37 C-19.505 34.03 -19.505 34.03 -19 31 C-18.34 31 -17.68 31 -17 31 C-16.89300781 30.28714844 -16.78601563 29.57429688 -16.67578125 28.83984375 C-15.00063801 21.80036897 -10.35649314 14.75679451 -6 9 C-5.34 9 -4.68 9 -4 9 C-4 8.01 -4 7.02 -4 6 C-3.02149805 4.97895449 -2.02019573 3.9793879 -1 3 C-0.67 2.01 -0.34 1.02 0 0 Z " fill="#247D56" transform="translate(297,292)"/>
<path d="M0 0 C2.475 0.495 2.475 0.495 5 1 C2.88998192 4.75636976 0.51532901 7.87130056 -2.375 11.0625 C-3.12523437 11.89910156 -3.87546875 12.73570313 -4.6484375 13.59765625 C-6.96354433 15.96275708 -9.41117463 17.94530832 -12 20 C-12.721875 20.9075 -13.44375 21.815 -14.1875 22.75 C-14.785625 23.4925 -15.38375 24.235 -16 25 C-16.66 25 -17.32 25 -18 25 C-18.33 25.99 -18.66 26.98 -19 28 C-24.34308003 28.50886476 -26.73831112 27.12523852 -31 24 C-31.99 23.67 -32.98 23.34 -34 23 C-34 22.34 -34 21.68 -34 21 C-34.99 20.67 -35.98 20.34 -37 20 C-37 19.67 -37 19.34 -37 19 C-35.35 19 -33.7 19 -32 19 C-32 19.66 -32 20.32 -32 21 C-31.2575 21.12375 -30.515 21.2475 -29.75 21.375 C-27.19858515 21.95486701 -25.2732427 22.73708739 -23 24 C-23 24.66 -23 25.32 -23 26 C-22.01 26 -21.02 26 -20 26 C-19.72929687 25.41347656 -19.45859375 24.82695313 -19.1796875 24.22265625 C-16.64170162 19.44082192 -12.64603816 14.82080888 -8 12 C-7.34 12 -6.68 12 -6 12 C-6 11.34 -6 10.68 -6 10 C-5.34 10 -4.68 10 -4 10 C-2.26337666 6.77484237 -1.1094072 3.48670834 0 0 Z " fill="#227852" transform="translate(315,94)"/>
<path d="M0 0 C4.23429756 1.31061591 8.07407404 2.94356259 12 5 C12 5.66 12 6.32 12 7 C12.69867188 7.06058594 13.39734375 7.12117187 14.1171875 7.18359375 C15.02726563 7.26738281 15.93734375 7.35117188 16.875 7.4375 C17.77992188 7.51871094 18.68484375 7.59992188 19.6171875 7.68359375 C22 8 22 8 24 9 C25.81171098 9.15306901 27.6283794 9.24946661 29.4453125 9.31640625 C30.52167969 9.35830078 31.59804687 9.40019531 32.70703125 9.44335938 C34.39892578 9.50233398 34.39892578 9.50233398 36.125 9.5625 C37.26066406 9.60568359 38.39632812 9.64886719 39.56640625 9.69335938 C42.37747768 9.7996604 45.18863945 9.90169405 48 10 C48 9.34 48 8.68 48 8 C50.64 8 53.28 8 56 8 C56 7.34 56 6.68 56 6 C59.63 5.67 63.26 5.34 67 5 C65 7 65 7 62.375 7.125 C61.59125 7.08375 60.8075 7.0425 60 7 C60 7.66 60 8.32 60 9 C56.37 9.33 52.74 9.66 49 10 C49 10.66 49 11.32 49 12 C40.64251778 12.84327749 32.39802254 13.12190678 24 13 C23.67 12.34 23.34 11.68 23 11 C20.29279479 10.30517025 20.29279479 10.30517025 17.125 9.875 C16.05507812 9.70742187 14.98515625 9.53984375 13.8828125 9.3671875 C10.98835767 8.93682476 10.98835767 8.93682476 8 9 C6.65668346 7.00669158 5.32405988 5.00615134 4 3 C1.89960669 1.61131484 1.89960669 1.61131484 0 1 C0 0.67 0 0.34 0 0 Z " fill="#ABD6B6" transform="translate(216,228)"/>
<path d="M0 0 C5 1 5 1 6.36328125 2.99609375 C6.67652344 3.80175781 6.98976562 4.60742188 7.3125 5.4375 C7.63863281 6.24058594 7.96476563 7.04367188 8.30078125 7.87109375 C9 10 9 10 9 12 C9.99713879 13.00285305 10.99761052 14.0023952 12 15 C13.16796875 16.97265625 13.16796875 16.97265625 14.1875 19.0625 C14.53167969 19.75472656 14.87585938 20.44695312 15.23046875 21.16015625 C16 23 16 23 16 25 C16.99 25 17.98 25 19 25 C19.99 27.31 20.98 29.62 22 32 C22.66 32 23.32 32 24 32 C24.33 33.98 24.66 35.96 25 38 C23.25 37.875 23.25 37.875 21 37 C17 31.77777778 17 31.77777778 17 29 C16.34 29 15.68 29 15 29 C13.5393715 26.35261084 13 25.10551666 13 22 C12.34 22 11.68 22 11 22 C10.67 20.35 10.34 18.7 10 17 C9.34 17 8.68 17 8 17 C6.5393715 14.35261084 6 13.10551666 6 10 C5.34 10 4.68 10 4 10 C2.68 6.7 1.36 3.4 0 0 Z " fill="#68A96A" transform="translate(163,226)"/>
<path d="M0 0 C0 0.66 0 1.32 0 2 C-1.65 2.33 -3.3 2.66 -5 3 C-5 3.66 -5 4.32 -5 5 C-5.6290625 5.17015625 -6.258125 5.3403125 -6.90625 5.515625 C-12.00247352 6.95853166 -16.64225193 8.61941753 -21.30859375 11.1328125 C-23 12 -23 12 -26 13 C-26.33 13.66 -26.66 14.32 -27 15 C-27.99 15 -28.98 15 -30 15 C-29.6875 13.125 -29.6875 13.125 -29 11 C-26 9 -26 9 -23 9 C-23 8.34 -23 7.68 -23 7 C-21.10435574 6.20788071 -19.20847629 5.41632424 -17.3125 4.625 C-16.25675781 4.18414062 -15.20101562 3.74328125 -14.11328125 3.2890625 C-12.57220703 2.65097656 -12.57220703 2.65097656 -11 2 C-10.113125 1.6184375 -9.22625 1.236875 -8.3125 0.84375 C-5.45276747 -0.19966592 -3.01935483 -0.14043511 0 0 Z " fill="#61A866" transform="translate(229,74)"/>
<path d="M0 0 C0.99 0.33 1.98 0.66 3 1 C3.6591508 2.79323558 4.25414363 4.61036788 4.8125 6.4375 C5.93731577 9.51280551 5.93731577 9.51280551 8 12 C12.6425356 13.58268259 17.11520522 13.91406992 22 14 C21.67 14.99 21.34 15.98 21 17 C21 16.34 21 15.68 21 15 C15.72 15 10.44 15 5 15 C4.67 12.36 4.34 9.72 4 7 C3.01 7 2.02 7 1 7 C0.67 7.66 0.34 8.32 0 9 C-0.66 9 -1.32 9 -2 9 C-2.144375 9.804375 -2.28875 10.60875 -2.4375 11.4375 C-3 14 -3 14 -4 15 C-5.95416157 15.20999945 -7.91400299 15.36832634 -9.875 15.5 C-13.18718188 15.72347251 -15.84376196 15.94792065 -19 17 C-18.505 15.515 -18.505 15.515 -18 14 C-11.565 13.505 -11.565 13.505 -5 13 C-4.360625 11.040625 -3.72125 9.08125 -3.0625 7.0625 C-1.125 1.125 -1.125 1.125 0 0 Z " fill="#AEDBC6" transform="translate(252,264)"/>
<path d="M0 0 C-1.4562545 0.67119549 -2.91507867 1.33681807 -4.375 2 C-5.18710938 2.37125 -5.99921875 2.7425 -6.8359375 3.125 C-9 4 -9 4 -11 4 C-11 4.66 -11 5.32 -11 6 C-14.46153846 9 -14.46153846 9 -17 9 C-17 9.66 -17 10.32 -17 11 C-18.98260426 12.68732277 -20.9832342 14.35366057 -23 16 C-23.33 16.66 -23.66 17.32 -24 18 C-24.66 18 -25.32 18 -26 18 C-27.86551426 21.58752742 -29.42535928 25.27812193 -31 29 C-31.66 29 -32.32 29 -33 29 C-32.41196203 25.97580475 -31.77321882 22.98241547 -31 20 C-30.01 20 -29.02 20 -28 20 C-27.7834375 19.071875 -27.7834375 19.071875 -27.5625 18.125 C-27 16 -27 16 -26 14 C-25.34 14 -24.68 14 -24 14 C-23.67 13.01 -23.34 12.02 -23 11 C-22.01 10.34 -21.02 9.68 -20 9 C-20.33 8.34 -20.66 7.68 -21 7 C-17.535 6.505 -17.535 6.505 -14 6 C-14 5.34 -14 4.68 -14 4 C-13.34 4 -12.68 4 -12 4 C-11.67 3.01 -11.34 2.02 -11 1 C-9.00390625 0.234375 -9.00390625 0.234375 -6.5625 -0.25 C-5.75941406 -0.42015625 -4.95632812 -0.5903125 -4.12890625 -0.765625 C-2 -1 -2 -1 0 0 Z " fill="#6BAB6F" transform="translate(227,116)"/>
<path d="M0 0 C0.9391862 3.15577608 1.09260141 5.92581421 1.02734375 9.2109375 C1.01509766 10.20867187 1.00285156 11.20640625 0.99023438 12.234375 C0.9552081 14.32038418 0.91617551 16.40633011 0.87304688 18.4921875 C0.81454456 23.83310505 1.07005273 27.96028864 3 33 C3.27580863 35.28452807 3.4843786 37.57818383 3.625 39.875 C3.69976562 41.02742188 3.77453125 42.17984375 3.8515625 43.3671875 C3.90054688 44.23601562 3.94953125 45.10484375 4 46 C3.34 46 2.68 46 2 46 C-0.88851423 35.42694791 -2.07003214 25.66902215 -2.1875 14.75 C-2.20063232 13.98091309 -2.21376465 13.21182617 -2.22729492 12.41943359 C-2.23370312 7.88144503 -1.72202208 4.27442635 0 0 Z " fill="#6BAE72" transform="translate(151,160)"/>
<path d="M0 0 C7.62573943 0.4953119 7.62573943 0.4953119 10.41015625 2.52734375 C12.2129001 4.65833287 13.57421875 6.32198288 13.57421875 9.1875 C12.42953125 9.5896875 12.42953125 9.5896875 11.26171875 10 C8.70040991 11.13174112 7.37728937 12.09973401 5.57421875 14.1875 C4.91421875 13.8575 4.25421875 13.5275 3.57421875 13.1875 C4.06921875 12.795625 4.56421875 12.40375 5.07421875 12 C7.10552518 9.93761995 7.10552518 9.93761995 6.57421875 5.1875 C2.94421875 4.8575 -0.68578125 4.5275 -4.42578125 4.1875 C-5.08578125 5.5075 -5.74578125 6.8275 -6.42578125 8.1875 C-8.55078125 9.4375 -8.55078125 9.4375 -10.42578125 10.1875 C-9.46945126 8.89434939 -8.51064274 7.60303147 -7.55078125 6.3125 C-7.01710938 5.59320313 -6.4834375 4.87390625 -5.93359375 4.1328125 C-2.9042458 0.22448277 -2.9042458 0.22448277 0 0 Z " fill="#69A98D" transform="translate(320.42578125,97.8125)"/>
<path d="M0 0 C0.66 0 1.32 0 2 0 C1.38219706 4.14156787 -0.0193672 7.35285931 -1.9375 11.0625 C-2.46214844 12.08472656 -2.98679687 13.10695312 -3.52734375 14.16015625 C-4.01332031 15.09730469 -4.49929688 16.03445312 -5 17 C-5.66929867 18.33201408 -6.33717854 19.66475098 -7 21 C-7.66 21 -8.32 21 -9 21 C-9.103125 21.53625 -9.20625 22.0725 -9.3125 22.625 C-10.18092697 25.62502044 -11.55620296 28.2379535 -13 31 C-13.99 30.67 -14.98 30.34 -16 30 C-15.525625 29.113125 -15.05125 28.22625 -14.5625 27.3125 C-12.9317559 24.22752221 -12.9317559 24.22752221 -12.5625 21.5625 C-11.51902517 16.80889242 -8.87152381 12.0298882 -5 9 C-4.01 8.67 -3.02 8.34 -2 8 C-2 6.68 -2 5.36 -2 4 C-1.34 4 -0.68 4 0 4 C0 2.68 0 1.36 0 0 Z " fill="#247B54" transform="translate(344,220)"/>
<path d="M0 0 C0.66 0 1.32 0 2 0 C2.08221346 1.54074116 2.13973295 3.08280654 2.1875 4.625 C2.22230469 5.48351562 2.25710937 6.34203125 2.29296875 7.2265625 C2 10 2 10 0.5078125 12.828125 C-1.32065761 16.67454398 -1.41456366 19.96061458 -1.3125 24.125 C-1.303396 24.87056152 -1.29429199 25.61612305 -1.28491211 26.38427734 C-1.14399084 32.71960726 -0.25119764 38.79176741 1 45 C1.36188716 47.33039427 1.68135113 49.66324163 2 52 C0 51 0 51 -0.83837891 48.98608398 C-3.0383526 41.26787812 -3.45303165 34.06074399 -3.375 26.0625 C-3.38660156 24.87720703 -3.39820313 23.69191406 -3.41015625 22.47070312 C-3.38417642 14.57716366 -2.28011226 7.55449495 0 0 Z " fill="#DDF6DE" transform="translate(193,149)"/>
<path d="M0 0 C0.85010911 2.40505552 1.14566919 3.60055975 0.2578125 6.03515625 C-0.11601562 6.70417969 -0.48984375 7.37320313 -0.875 8.0625 C-2.1677445 10.41746463 -3.14326941 12.42980824 -4 15 C-4.66 15 -5.32 15 -6 15 C-6.33 15.99 -6.66 16.98 -7 18 C-7.66 18 -8.32 18 -9 18 C-9.226875 18.721875 -9.45375 19.44375 -9.6875 20.1875 C-11.26766076 23.57355877 -13.27191325 25.46677659 -16 28 C-16.721875 28.763125 -17.44375 29.52625 -18.1875 30.3125 C-20 32 -20 32 -22 32 C-22 31.01 -22 30.02 -22 29 C-21.01 29 -20.02 29 -19 29 C-19 28.01 -19 27.02 -19 26 C-18.01 26 -17.02 26 -16 26 C-15.67 24.35 -15.34 22.7 -15 21 C-14.01 21 -13.02 21 -12 21 C-11.34 19.35 -10.68 17.7 -10 16 C-9.34 16 -8.68 16 -8 16 C-8 14.68 -8 13.36 -8 12 C-7.01 11.67 -6.02 11.34 -5 11 C-3.97718482 8.90280128 -3.97718482 8.90280128 -3.3125 6.4375 C-3.06113281 5.61121094 -2.80976563 4.78492188 -2.55078125 3.93359375 C-2.36902344 3.29550781 -2.18726563 2.65742188 -2 2 C-1.34 2 -0.68 2 0 2 C0 1.34 0 0.68 0 0 Z " fill="#D8F7EB" transform="translate(314,194)"/>
<path d="M0 0 C0.99 0 1.98 0 3 0 C4.3726682 1.97321053 5.70427617 3.97543152 7 6 C7.99 6.66 8.98 7.32 10 8 C10.66 7.67 11.32 7.34 12 7 C12.66 10.96 13.32 14.92 14 19 C12.35 18.01 10.7 17.02 9 16 C9 15.34 9 14.68 9 14 C8.34 14 7.68 14 7 14 C7 12.68 7 11.36 7 10 C6.34 10 5.68 10 5 10 C3.98133771 8.34467377 2.98189187 6.67739862 2 5 C1.34 4.67 0.68 4.34 0 4 C0 2.68 0 1.36 0 0 Z " fill="#64AB6C" transform="translate(240,340)"/>
<path d="M0 0 C0.99 0.66 1.98 1.32 3 2 C2.85831863 3.43791516 2.71148957 4.8753237 2.5625 6.3125 C2.48128906 7.11300781 2.40007812 7.91351563 2.31640625 8.73828125 C2 11 2 11 1 14 C0.34 14 -0.32 14 -1 14 C-1.2784375 15.175625 -1.2784375 15.175625 -1.5625 16.375 C-3 19 -3 19 -6.625 20.3125 C-7.73875 20.539375 -8.8525 20.76625 -10 21 C-10 20.34 -10 19.68 -10 19 C-9.34 19 -8.68 19 -8 19 C-7.9175 18.443125 -7.835 17.88625 -7.75 17.3125 C-6.77197736 14.29693018 -4.98984676 12.458046 -3 10 C-0.825495 6.19461625 0 4.44494611 0 0 Z " fill="#183248" transform="translate(198,303)"/>
<path d="M0 0 C1.50433594 0.01353516 1.50433594 0.01353516 3.0390625 0.02734375 C3.80992187 0.03894531 4.58078125 0.05054687 5.375 0.0625 C4.715 0.7225 4.055 1.3825 3.375 2.0625 C3.18757462 4.69210627 3.11930647 7.21443335 3.14453125 9.84375 C3.14498947 10.61303833 3.14544769 11.38232666 3.1459198 12.17492676 C3.14894247 13.80234315 3.15682926 15.42975664 3.16918945 17.05712891 C3.18742701 19.55251277 3.18969927 22.04752525 3.18945312 24.54296875 C3.19436907 26.12239905 3.20019772 27.70182683 3.20703125 29.28125 C3.20814407 30.0302356 3.2092569 30.77922119 3.21040344 31.55090332 C3.17428862 35.4346195 3.17428862 35.4346195 4.375 39.0625 C3.385 38.7325 2.395 38.4025 1.375 38.0625 C1.375 26.8425 1.375 15.6225 1.375 4.0625 C-1.265 4.0625 -3.905 4.0625 -6.625 4.0625 C-6.955 3.0725 -7.285 2.0825 -7.625 1.0625 C-4.98041621 -0.25979189 -2.94738699 -0.03427194 0 0 Z " fill="#4AA65E" transform="translate(250.625,69.9375)"/>
<path d="M0 0 C0.99 0 1.98 0 3 0 C2.37240135 2.92879371 1.41377341 5.36095629 0 8 C-0.66 8 -1.32 8 -2 8 C-2.15662109 8.82757813 -2.15662109 8.82757813 -2.31640625 9.671875 C-3.14560384 12.49588509 -4.4279965 14.72554916 -5.9375 17.25 C-6.46214844 18.14203125 -6.98679687 19.0340625 -7.52734375 19.953125 C-8.01332031 20.62859375 -8.49929688 21.3040625 -9 22 C-9.66 22 -10.32 22 -11 22 C-11 21.01 -11 20.02 -11 19 C-10.34 19 -9.68 19 -9 19 C-9 16.36 -9 13.72 -9 11 C-8.01 11 -7.02 11 -6 11 C-5.34 9.02 -4.68 7.04 -4 5 C-3.01 5 -2.02 5 -1 5 C-0.67 3.35 -0.34 1.7 0 0 Z " fill="#247E56" transform="translate(323,256)"/>
<path d="M0 0 C0.33 0 0.66 0 1 0 C1 16.83 1 33.66 1 51 C1.99 51 2.98 51 4 51 C4 50.34 4 49.68 4 49 C4.66 49 5.32 49 6 49 C5.1875 51.4375 5.1875 51.4375 4 54 C2.515 54.495 2.515 54.495 1 55 C-0.26372044 52.47255912 -0.12022795 50.73619692 -0.11352539 47.90771484 C-0.11344986 46.84676605 -0.11337433 45.78581726 -0.11329651 44.69271851 C-0.10813522 43.54373077 -0.10297394 42.39474304 -0.09765625 41.2109375 C-0.0962413 40.03737701 -0.09482635 38.86381653 -0.09336853 37.6546936 C-0.08775689 33.89477015 -0.07520238 30.13490555 -0.0625 26.375 C-0.0574865 23.83073002 -0.05292333 21.28645912 -0.04882812 18.7421875 C-0.03778368 12.49477147 -0.02103418 6.24738994 0 0 Z " fill="#329951" transform="translate(253,303)"/>
<path d="M0 0 C1.32 0 2.64 0 4 0 C4.13277344 0.63808594 4.26554687 1.27617187 4.40234375 1.93359375 C4.57894531 2.75988281 4.75554687 3.58617187 4.9375 4.4375 C5.11152344 5.26121094 5.28554688 6.08492187 5.46484375 6.93359375 C5.80752994 8.97661204 5.80752994 8.97661204 7 10 C7.14115161 12.67058851 7.04247107 15.32432238 7 18 C6.01 18.33 5.02 18.66 4 19 C3.3306277 16.20895657 2.66438908 13.41722977 2 10.625 C1.71382813 9.43390625 1.71382813 9.43390625 1.421875 8.21875 C1.24140625 7.45820313 1.0609375 6.69765625 0.875 5.9140625 C0.70742188 5.2123291 0.53984375 4.5105957 0.3671875 3.78759766 C0 2 0 2 0 0 Z " fill="#277955" transform="translate(349,140)"/>
<path d="M0 0 C1.65 0 3.3 0 5 0 C5.50367757 1.45706726 6.00282556 2.91570096 6.5 4.375 C6.91765625 5.59316406 6.91765625 5.59316406 7.34375 6.8359375 C8 9 8 9 8 11 C7.01 11 6.02 11 5 11 C5 10.34 5 9.68 5 9 C4.01 9.33 3.02 9.66 2 10 C2 9.34 2 8.68 2 8 C1.34 8 0.68 8 0 8 C-0.33 8.66 -0.66 9.32 -1 10 C-0.67 6.7 -0.34 3.4 0 0 Z " fill="#1A3044" transform="translate(153,227)"/>
<path d="M0 0 C0.66 0.33 1.32 0.66 2 1 C2.07436755 5.6081187 2.12870394 10.21588514 2.16479492 14.82446289 C2.17984622 16.39093107 2.20029207 17.95735736 2.22631836 19.52368164 C2.26286433 21.78021606 2.27976261 24.03619153 2.29296875 26.29296875 C2.30845261 26.98899704 2.32393646 27.68502533 2.33988953 28.40214539 C2.34138428 32.7579576 1.73497831 35.56434194 -1 39 C-1.66 39 -2.32 39 -3 39 C-3 39.99 -3 40.98 -3 42 C-3.66 42 -4.32 42 -5 42 C-4.52449439 40.51965236 -4.04448784 39.04074979 -3.5625 37.5625 C-3.29566406 36.73878906 -3.02882813 35.91507813 -2.75390625 35.06640625 C-2 33 -2 33 -1 32 C0.1967469 24.85299401 0.12517779 17.59740999 0.0625 10.375 C0.05798828 9.37082031 0.05347656 8.36664063 0.04882812 7.33203125 C0.03718967 4.88795529 0.0208424 2.4440118 0 0 Z " fill="#4C9675" transform="translate(317,161)"/>
<path d="M0 0 C1.65 0 3.3 0 5 0 C5 0.66 5 1.32 5 2 C6.11375 2.185625 6.11375 2.185625 7.25 2.375 C9.80141485 2.95486701 11.7267573 3.73708739 14 5 C14 5.66 14 6.32 14 7 C14.99 7 15.98 7 17 7 C17.66 5.68 18.32 4.36 19 3 C20.32 3.33 21.64 3.66 23 4 C22.360625 4.268125 21.72125 4.53625 21.0625 4.8125 C18.66868314 5.88667752 18.66868314 5.88667752 18 9 C12.65691997 9.50886476 10.26168888 8.12523852 6 5 C5.01 4.67 4.02 4.34 3 4 C3 3.34 3 2.68 3 2 C2.01 1.67 1.02 1.34 0 1 C0 0.67 0 0.34 0 0 Z " fill="#37805C" transform="translate(278,113)"/>
<path d="M0 0 C0.66 0 1.32 0 2 0 C2 0.66 2 1.32 2 2 C2.99 2.66 3.98 3.32 5 4 C5 5.32 5 6.64 5 8 C5.99 8.33 6.98 8.66 8 9 C10.04108797 12.00791911 10.19878036 14.42195344 10 18 C9.01 18.33 8.02 18.66 7 19 C7 18.01 7 17.02 7 16 C6.34 16 5.68 16 5 16 C1.57142857 8.71428571 1.57142857 8.71428571 2 4 C1.34 4 0.68 4 0 4 C0 2.68 0 1.36 0 0 Z " fill="#6AAC6F" transform="translate(155,207)"/>
<path d="M0 0 C0 3.38023517 -0.87455622 5.83468937 -2 9 C-2.66 9 -3.32 9 -4 9 C-4.0825 9.886875 -4.165 10.77375 -4.25 11.6875 C-5.0934086 15.41255464 -6.45552764 17.20928838 -9 20 C-10.32 19.67 -11.64 19.34 -13 19 C-12.34 17.68 -11.68 16.36 -11 15 C-10.34 15 -9.68 15 -9 15 C-8.814375 14.195625 -8.62875 13.39125 -8.4375 12.5625 C-6.46767565 7.68076139 -3.34377814 4.02326247 0 0 Z " fill="#1E7751" transform="translate(281,316)"/>
<path d="M0 0 C0.6875 2.3125 0.6875 2.3125 1 5 C-0.375 6.625 -0.375 6.625 -2 8 C-2.33 8.99 -2.66 9.98 -3 11 C-3.66 11 -4.32 11 -5 11 C-5.28875 11.639375 -5.5775 12.27875 -5.875 12.9375 C-7 15 -7 15 -9 16 C-8.34 13.69 -7.68 11.38 -7 9 C-6.34 9 -5.68 9 -5 9 C-5 8.01 -5 7.02 -5 6 C-4.01 6 -3.02 6 -2 6 C-2.99 4.35 -3.98 2.7 -5 1 C-7.31 1.33 -9.62 1.66 -12 2 C-11.67 1.01 -11.34 0.02 -11 -1 C-7.21072879 -2.89463561 -3.80605364 -1.24428677 0 0 Z " fill="#BCE5D5" transform="translate(327,103)"/>
<path d="M0 0 C-1.5628972 4.21982243 -4.58866745 6.21523874 -8 9 C-8.556875 9.763125 -9.11375 10.52625 -9.6875 11.3125 C-10.3371875 12.1478125 -10.3371875 12.1478125 -11 13 C-11.99 13 -12.98 13 -14 13 C-14 13.99 -14 14.98 -14 16 C-14.66 15.67 -15.32 15.34 -16 15 C-14.69581097 10.97875049 -13.38069424 9.42987398 -10 7 C-8.7483533 4.91665365 -8.7483533 4.91665365 -8 3 C-7.34 3 -6.68 3 -6 3 C-6 2.34 -6 1.68 -6 1 C-3.92446352 0.4465236 -2.15634036 0 0 0 Z " fill="#2C3F5C" transform="translate(225,135)"/>
<path d="M0 0 C3.49873271 1.39655297 4.70891831 2.71260484 6.25 6.125 C6.58515625 6.84945312 6.9203125 7.57390625 7.265625 8.3203125 C7.62914062 9.15175781 7.62914062 9.15175781 8 10 C6.35 10 4.7 10 3 10 C3.33 9.01 3.66 8.02 4 7 C2.35 7.33 0.7 7.66 -1 8 C-1.33 8.99 -1.66 9.98 -2 11 C-2.05399736 9.54207116 -2.09279177 8.08357288 -2.125 6.625 C-2.15980469 5.40683594 -2.15980469 5.40683594 -2.1953125 4.1640625 C-2 2 -2 2 0 0 Z " fill="#529B5D" transform="translate(150,217)"/>
<path d="M0 0 C0.33 0.66 0.66 1.32 1 2 C0.34 2 -0.32 2 -1 2 C-1 2.66 -1 3.32 -1 4 C-1.66 4 -2.32 4 -3 4 C-3.99 7.96 -4.98 11.92 -6 16 C-5.34 16 -4.68 16 -4 16 C-4 18.97 -4 21.94 -4 25 C-5.32 25 -6.64 25 -8 25 C-8 24.34 -8 23.68 -8 23 C-7.34 23 -6.68 23 -6 23 C-6.144375 22.34773438 -6.28875 21.69546875 -6.4375 21.0234375 C-8.56939502 10.98576512 -8.56939502 10.98576512 -8 7 C-6.125 4.625 -6.125 4.625 -4 3 C-3.34 3 -2.68 3 -2 3 C-2 2.34 -2 1.68 -2 1 C-1.34 0.67 -0.68 0.34 0 0 Z " fill="#459D76" transform="translate(272,281)"/>
<path d="M0 0 C0.33 0.99 0.66 1.98 1 3 C-0.2739589 5.03833424 -1.61061923 7.03852126 -3 9 C-3.33 9.99 -3.66 10.98 -4 12 C-4.66 12 -5.32 12 -6 12 C-6 18.93 -6 25.86 -6 33 C-8.42957843 29.35563236 -8.26845889 27.52072452 -8.25 23.1875 C-8.25515625 21.98480469 -8.2603125 20.78210938 -8.265625 19.54296875 C-7.85912502 14.12097636 -6.11025201 9.87079979 -3.4375 5.1875 C-2.78587891 4.03314453 -2.78587891 4.03314453 -2.12109375 2.85546875 C-1 1 -1 1 0 0 Z " fill="#304F6B" transform="translate(224,151)"/>
<path d="M0 0 C0.99 0 1.98 0 3 0 C3.33 0.99 3.66 1.98 4 3 C2.9375 4.0625 1.875 5.125 0.8125 6.1875 C-0.13882812 7.14849609 -0.13882812 7.14849609 -1.109375 8.12890625 C-2.67244921 9.675833 -4.29770351 11.15964994 -5.9375 12.625 C-8.25134976 14.83504672 -8.25134976 14.83504672 -8.3125 17.8125 C-8.1578125 18.8953125 -8.1578125 18.8953125 -8 20 C-8.66 20 -9.32 20 -10 20 C-10 17.03 -10 14.06 -10 11 C-9.34 11 -8.68 11 -8 11 C-8 10.01 -8 9.02 -8 8 C-6.865625 7.608125 -5.73125 7.21625 -4.5625 6.8125 C-0.79660949 5.41389118 -0.79660949 5.41389118 -0.0625 2.3125 C-0.041875 1.549375 -0.02125 0.78625 0 0 Z " fill="#BAE0D2" transform="translate(314,117)"/>
<path d="M0 0 C1.32 0 2.64 0 4 0 C3.34 1.98 2.68 3.96 2 6 C0.62714844 6.07347656 0.62714844 6.07347656 -0.7734375 6.1484375 C-1.96195313 6.22320312 -3.15046875 6.29796875 -4.375 6.375 C-6.15003906 6.47941406 -6.15003906 6.47941406 -7.9609375 6.5859375 C-11.10562319 6.70217346 -11.10562319 6.70217346 -13 9 C-12.6875 7.125 -12.6875 7.125 -12 5 C-9.05585952 3.03723968 -8.19795067 2.74523621 -4.875 2.5 C-2.956875 2.2525 -2.956875 2.2525 -1 2 C-0.67 1.34 -0.34 0.68 0 0 Z " fill="#6EAC6F" transform="translate(245,272)"/>
<path d="M0 0 C1.32 0.33 2.64 0.66 4 1 C4.33 1.66 4.66 2.32 5 3 C3.68 3 2.36 3 1 3 C1 17.19 1 31.38 1 46 C0.67 46 0.34 46 0 46 C0 30.82 0 15.64 0 0 Z " fill="#248A4B" transform="translate(254,299)"/>
<path d="M0 0 C1.9375 0.6875 1.9375 0.6875 4 2 C4.75 4.625 4.75 4.625 5 7 C5.66 7 6.32 7 7 7 C7 7.66 7 8.32 7 9 C7.66 9 8.32 9 9 9 C9.86646667 10.43011973 10.71781829 11.86940619 11.5625 13.3125 C12.03816406 14.11300781 12.51382813 14.91351563 13.00390625 15.73828125 C14 18 14 18 13 21 C13 20.34 13 19.68 13 19 C12.01 18.67 11.02 18.34 10 18 C7.92469613 15.07920195 7 13.62453269 7 10 C6.01 9.67 5.02 9.34 4 9 C2.00603743 6.33916031 0 3.38757675 0 0 Z " fill="#31495E" transform="translate(174,264)"/>
<path d="M0 0 C0.33 0.66 0.66 1.32 1 2 C-0.32163857 4.57719522 -1.41368242 6.56026181 -3.75 8.3125 C-5.38690629 10.52232349 -5.02161428 11.50517409 -4.6875 14.1875 C-4.460625 15.445625 -4.23375 16.70375 -4 18 C-6.32031952 15.97907654 -7.8239412 14.42914332 -9 11.5625 C-9 7.86543853 -7.54126009 6.60813535 -5 4 C-3.36643049 2.62631655 -1.7074998 1.28062485 0 0 Z " fill="#318561" transform="translate(314,123)"/>
<path d="M0 0 C0.99 0.33 1.98 0.66 3 1 C2.67 2.32 2.34 3.64 2 5 C1.34 5 0.68 5 0 5 C-0.66 6.65 -1.32 8.3 -2 10 C-2.66 10 -3.32 10 -4 10 C-4.33 11.32 -4.66 12.64 -5 14 C-5.66 14 -6.32 14 -7 14 C-7 14.66 -7 15.32 -7 16 C-7.66 16 -8.32 16 -9 16 C-8.125 11.25 -8.125 11.25 -7 9 C-6.34 9 -5.68 9 -5 9 C-5 8.01 -5 7.02 -5 6 C-3.70896357 4.6256709 -2.3743291 3.29103643 -1 2 C-0.67 1.34 -0.34 0.68 0 0 Z " fill="#2F885F" transform="translate(268,335)"/>
<path d="M0 0 C0.66 0 1.32 0 2 0 C2 8.25 2 16.5 2 25 C2.66 25 3.32 25 4 25 C6.42857143 32.42857143 6.42857143 32.42857143 5 36 C0.88041843 27.19907573 -0.30973 19.12161498 -0.125 9.4375 C-0.11597656 8.52419922 -0.10695312 7.61089844 -0.09765625 6.66992188 C-0.07437253 4.44632681 -0.0416771 2.22331323 0 0 Z " fill="#78B37B" transform="translate(187,164)"/>
<path d="M0 0 C0.33 0.66 0.66 1.32 1 2 C-0.32968354 5.98905063 -2.48817642 7.97586145 -5.9375 10.3125 C-8.59818132 11.19939377 -10.3353071 10.74019247 -13 10 C-13 9.34 -13 8.68 -13 8 C-12.01 8 -11.02 8 -10 8 C-10 7.34 -10 6.68 -10 6 C-9.44570313 5.73445312 -8.89140625 5.46890625 -8.3203125 5.1953125 C-7.59585937 4.84210938 -6.87140625 4.48890625 -6.125 4.125 C-5.40570313 3.77695313 -4.68640625 3.42890625 -3.9453125 3.0703125 C-1.84864981 2.03442457 -1.84864981 2.03442457 0 0 Z " fill="#439270" transform="translate(296,223)"/>
<path d="M0 0 C0.33 0.99 0.66 1.98 1 3 C0.01 3.33 -0.98 3.66 -2 4 C-2 4.66 -2 5.32 -2 6 C-2.99 6.33 -3.98 6.66 -5 7 C-4.34 7.66 -3.68 8.32 -3 9 C-6.07999946 12.67230705 -8.2482602 13.56802365 -13 14 C-10.98139091 7.94417272 -4.7905621 4.01744545 0 0 Z " fill="#D0EBDD" transform="translate(309,108)"/>
<path d="M0 0 C1.05960938 0.24363281 1.05960938 0.24363281 2.140625 0.4921875 C9.98968631 1.88614648 18.15080092 1.04655988 26 0 C25 2 25 2 22.8359375 3.10546875 C16.55259591 5.08740432 8.79007028 5.1332154 2.6875 2.5 C1.800625 2.005 0.91375 1.51 0 1 C0 0.67 0 0.34 0 0 Z " fill="#2D4D68" transform="translate(241,202)"/>
<path d="M0 0 C-0.33 0.66 -0.66 1.32 -1 2 C-2.96875 2.30859375 -2.96875 2.30859375 -5.5 2.4375 C-10.68625378 2.84104136 -15.16242485 4.1420907 -20 6 C-20.33 5.01 -20.66 4.02 -21 3 C-13.92444501 -0.0017506 -7.62951555 -0.34855655 0 0 Z " fill="#102642" transform="translate(252,126)"/>
<path d="M0 0 C0.33 0 0.66 0 1 0 C1 8.91 1 17.82 1 27 C0.67 27 0.34 27 0 27 C0 25.35 0 23.7 0 22 C-0.66 22 -1.32 22 -2 22 C-2 17.05 -2 12.1 -2 7 C-1.34 7 -0.68 7 0 7 C0 4.69 0 2.38 0 0 Z " fill="#0B2039" transform="translate(206,161)"/>
<path d="M0 0 C0 0.66 0 1.32 0 2 C-0.66 2 -1.32 2 -2 2 C-2.061875 2.598125 -2.12375 3.19625 -2.1875 3.8125 C-3.34270543 6.92266847 -5.06877187 7.60417708 -8 9 C-8.99 9 -9.98 9 -11 9 C-11 8.34 -11 7.68 -11 7 C-10.34 7 -9.68 7 -9 7 C-9 6.34 -9 5.68 -9 5 C-9.66 4.67 -10.32 4.34 -11 4 C-9.5437455 3.32880451 -8.08492133 2.66318193 -6.625 2 C-5.81289062 1.62875 -5.00078125 1.2575 -4.1640625 0.875 C-2 0 -2 0 0 0 Z " fill="#1D344C" transform="translate(168,345)"/>
<path d="M0 0 C3.40278369 1.45833587 5.70132498 3.07795549 8 6 C8.171875 9.234375 8.171875 9.234375 7.75 12.75 C7.62109375 13.92046875 7.4921875 15.0909375 7.359375 16.296875 C7.24078125 17.18890625 7.1221875 18.0809375 7 19 C8.32 18.67 9.64 18.34 11 18 C8.94766315 20.2477975 7.99332739 21.0022242 5 22 C5.05800781 20.91460937 5.11601562 19.82921875 5.17578125 18.7109375 C5.22270558 17.26566824 5.26820287 15.82035216 5.3125 14.375 C5.35439453 13.66214844 5.39628906 12.94929688 5.43945312 12.21484375 C5.5343567 8.07704767 5.17778452 5.71334142 2.48046875 2.4765625 C1.66191406 1.65929687 0.84335938 0.84203125 0 0 Z " fill="#B7E0B9" transform="translate(236,282)"/>
<path d="M0 0 C0.33 0 0.66 0 1 0 C2.19088986 5.38027025 3.2919519 10.45291384 3 16 C-0.99455527 15.38545304 -3.74466336 13.29353263 -7 11 C-4 11 -4 11 0 12 C0 8.04 0 4.08 0 0 Z " fill="#A5DBC3" transform="translate(263,288)"/>
<path d="M0 0 C2.4375 0.75 2.4375 0.75 5 2 C5.3721042 3.32303717 5.70630173 4.65737935 6 6 C7.9837767 7.28436734 7.9837767 7.28436734 10 8 C10 9.32 10 10.64 10 12 C7 12 7 12 5.3125 10.75 C4 9 4 9 4 5 C3.34 5 2.68 5 2 5 C2 4.34 2 3.68 2 3 C1.34 3 0.68 3 0 3 C0 2.01 0 1.02 0 0 Z " fill="#6CAF70" transform="translate(229,326)"/>
<path d="M0 0 C2 1 2 1 2 1 Z M-1 1 C0.125 4.75 0.125 4.75 -1 7 C-1.66 7 -2.32 7 -3 7 C-4.86551426 10.58752742 -6.42535928 14.27812193 -8 18 C-8.66 18 -9.32 18 -10 18 C-9.41196203 14.97580475 -8.77321882 11.98241547 -8 9 C-7.01 9 -6.02 9 -5 9 C-4.855625 8.38125 -4.71125 7.7625 -4.5625 7.125 C-4 5 -4 5 -3 3 C-2.34 3 -1.68 3 -1 3 C-1 2.34 -1 1.68 -1 1 Z " fill="#5FA764" transform="translate(204,127)"/>
<path d="M0 0 C-0.33 0.99 -0.66 1.98 -1 3 C-1.33 3 -1.66 3 -2 3 C-2.144375 4.134375 -2.28875 5.26875 -2.4375 6.4375 C-3 10 -3 10 -4 11 C-4.23287008 12.68183948 -4.41264166 14.3712416 -4.5625 16.0625 C-4.64628906 16.98160156 -4.73007813 17.90070313 -4.81640625 18.84765625 C-4.87699219 19.55792969 -4.93757812 20.26820313 -5 21 C-5.33 21 -5.66 21 -6 21 C-6.02696009 18.2291017 -6.04681952 15.4584655 -6.0625 12.6875 C-6.07087891 11.90181641 -6.07925781 11.11613281 -6.08789062 10.30664062 C-6.09111328 9.54931641 -6.09433594 8.79199219 -6.09765625 8.01171875 C-6.10289307 7.31522217 -6.10812988 6.61872559 -6.11352539 5.90112305 C-6 4 -6 4 -5 1 C-3 0 -3 0 0 0 Z " fill="#2F464A" transform="translate(154,224)"/>
<path d="M0 0 C0.99 0 1.98 0 3 0 C2 8.57142857 2 8.57142857 1 12 C-0.32 12 -1.64 12 -3 12 C-2.68950274 10.56206608 -2.3765224 9.1246682 -2.0625 7.6875 C-1.88847656 6.88699219 -1.71445313 6.08648437 -1.53515625 5.26171875 C-1 3 -1 3 0 0 Z " fill="#68B06D" transform="translate(153,145)"/>
<path d="M0 0 C1.98 0.66 3.96 1.32 6 2 C6 3.32 6 4.64 6 6 C6.66 6 7.32 6 8 6 C8.99 7.98 9.98 9.96 11 12 C10.01 12.33 9.02 12.66 8 13 C7.67 11.68 7.34 10.36 7 9 C6.34 9 5.68 9 5 9 C5 8.01 5 7.02 5 6 C4.34 6 3.68 6 3 6 C3 5.34 3 4.68 3 4 C2.34 4 1.68 4 1 4 C0.67 2.68 0.34 1.36 0 0 Z " fill="#6DAE71" transform="translate(219,313)"/>
<path d="M0 0 C0.33 0 0.66 0 1 0 C1 3.3 1 6.6 1 10 C1.99 9.34 2.98 8.68 4 8 C6.33199388 7.92094936 8.66832622 7.91201231 11 8 C7.35883227 11.33773709 3.71392758 11.97864902 -1 13 C-1.0272415 11.58344207 -1.04650467 10.16672955 -1.0625 8.75 C-1.07410156 7.96109375 -1.08570313 7.1721875 -1.09765625 6.359375 C-1.00385306 4.09308998 -0.63241063 2.1711105 0 0 Z " fill="#DCF6E0" transform="translate(244,288)"/>
<path d="M0 0 C0.99 0.33 1.98 0.66 3 1 C3 5.29 3 9.58 3 14 C2.01 14 1.02 14 0 14 C0 9.38 0 4.76 0 0 Z " fill="#16764B" transform="translate(355,168)"/>
<path d="M0 0 C5.86809507 0.52393706 10.54873741 1.76108858 16 4 C16 4.66 16 5.32 16 6 C10.88372874 6.30095713 8.22835174 5.85699442 4 3 C1.80869466 2.30420546 1.80869466 2.30420546 0 2 C0 1.34 0 0.68 0 0 Z " fill="#3E926C" transform="translate(277,73)"/>
<path d="M0 0 C7.42857143 -0.14285714 7.42857143 -0.14285714 11 1 C10.67 1.99 10.34 2.98 10 4 C6.37 4 2.74 4 -1 4 C-0.67 2.68 -0.34 1.36 0 0 Z " fill="#10713A" transform="translate(256,70)"/>
<path d="M0 0 C0.33 0.66 0.66 1.32 1 2 C4.02934491 2.65772428 4.02934491 2.65772428 7 3 C7 3.33 7 3.66 7 4 C1.31302429 4.91397824 -3.31302429 4.91397824 -9 4 C-9 3.01 -9 2.02 -9 1 C-5.846632 0.29925156 -3.27275026 0 0 0 Z " fill="#5FA768" transform="translate(243,71)"/>
<path d="M0 0 C4.23429756 1.31061591 8.07407404 2.94356259 12 5 C12 5.66 12 6.32 12 7 C14.97 7.495 14.97 7.495 18 8 C14.56713122 9.05626732 11.57176913 9.520883 8 9 C5.875 6.125 5.875 6.125 4 3 C1.89960669 1.61131484 1.89960669 1.61131484 0 1 C0 0.67 0 0.34 0 0 Z " fill="#8FC494" transform="translate(216,228)"/>
<path d="M0 0 C0.66 0.33 1.32 0.66 2 1 C1.01 2.485 1.01 2.485 0 4 C-1.32 4 -2.64 4 -4 4 C-4.33 5.32 -4.66 6.64 -5 8 C-7.31 8.66 -9.62 9.32 -12 10 C-12 9.34 -12 8.68 -12 8 C-8.53846154 5 -8.53846154 5 -6 5 C-6 4.34 -6 3.68 -6 3 C-4.03533587 1.93224776 -2.03144641 0.93446535 0 0 Z " fill="#CFEBCD" transform="translate(222,117)"/>
<path d="M0 0 C8.91 0 17.82 0 27 0 C27 0.66 27 1.32 27 2 C27.99 2.33 28.98 2.66 30 3 C27.69 3 25.38 3 23 3 C23 2.34 23 1.68 23 1 C15.41 1 7.82 1 0 1 C0 0.67 0 0.34 0 0 Z " fill="#6AAA88" transform="translate(242,109)"/>
<path d="M0 0 C0.66 0 1.32 0 2 0 C1.39085841 3.76314135 0.3120315 6.83503926 -1.375 10.25 C-1.79523438 11.12140625 -2.21546875 11.9928125 -2.6484375 12.890625 C-4 15 -4 15 -7 16 C-6.34 13.36 -5.68 10.72 -5 8 C-4.01 8 -3.02 8 -2 8 C-2 6.68 -2 5.36 -2 4 C-1.34 4 -0.68 4 0 4 C0 2.68 0 1.36 0 0 Z " fill="#358762" transform="translate(344,220)"/>
<path d="M0 0 C0.25 2.25 0.25 2.25 0 5 C-2 7.3125 -2 7.3125 -4 9 C-5.32 8.34 -6.64 7.68 -8 7 C-3.68085106 0 -3.68085106 0 0 0 Z " fill="#102E48" transform="translate(187,327)"/>
<path d="M0 0 C0.99 0.33 1.98 0.66 3 1 C3 1.66 3 2.32 3 3 C3.99 3 4.98 3 6 3 C6.66 4.32 7.32 5.64 8 7 C7.34 7 6.68 7 6 7 C6.66 8.65 7.32 10.3 8 12 C7.01 11.67 6.02 11.34 5 11 C5 10.01 5 9.02 5 8 C4.34 8 3.68 8 3 8 C3 7.01 3 6.02 3 5 C2.34 5 1.68 5 1 5 C0.67 3.35 0.34 1.7 0 0 Z " fill="#172A44" transform="translate(184,282)"/>
<path d="M0 0 C0.66 0.33 1.32 0.66 2 1 C1.34 2.32 0.68 3.64 0 5 C-0.66 5 -1.32 5 -2 5 C-2.020625 5.5775 -2.04125 6.155 -2.0625 6.75 C-3.5766255 10.38390121 -6.55956175 11.24850416 -10 13 C-8.5 10 -8.5 10 -7 7 C-6.34 7 -5.68 7 -5 7 C-4.731875 6.401875 -4.46375 5.80375 -4.1875 5.1875 C-3.01506533 3.02775192 -1.80630718 1.64209744 0 0 Z " fill="#B8DEBC" transform="translate(208,127)"/>
<path d="M0 0 C0.99 0.33 1.98 0.66 3 1 C4.49937028 1.04346001 6.00053305 1.03998579 7.5 1 C10.45924233 0.92108687 12.13339242 1.04446414 15 2 C14.67 3.32 14.34 4.64 14 6 C11.8509548 5.57855998 9.70577212 5.13737951 7.5625 4.6875 C6.36753906 4.44386719 5.17257812 4.20023437 3.94140625 3.94921875 C2.48541016 3.47935547 2.48541016 3.47935547 1 3 C0.67 2.01 0.34 1.02 0 0 Z " fill="#227751" transform="translate(283,77)"/>
<path d="M0 0 C-0.33 0.66 -0.66 1.32 -1 2 C-3 2.66666667 -5 3.33333333 -7 4 C-7.680625 4.53625 -8.36125 5.0725 -9.0625 5.625 C-11.50831486 7.36073958 -13.06667261 7.24444395 -16 7 C-15.38125 6.9175 -14.7625 6.835 -14.125 6.75 C-13.073125 6.37875 -13.073125 6.37875 -12 6 C-11.71125 5.38125 -11.4225 4.7625 -11.125 4.125 C-8.87830526 -0.11875672 -4.43642026 -1.87694703 0 0 Z " fill="#E0F8E2" transform="translate(234,115)"/>
<path d="M0 0 C0.78375 0.04125 1.5675 0.0825 2.375 0.125 C0.44619658 3.53255272 -1.4526509 6.86647635 -3.625 10.125 C-4.285 10.125 -4.945 10.125 -5.625 10.125 C-5.625 9.135 -5.625 8.145 -5.625 7.125 C-4.965 7.125 -4.305 7.125 -3.625 7.125 C-3.934375 5.949375 -3.934375 5.949375 -4.25 4.75 C-4.37375 3.88375 -4.4975 3.0175 -4.625 2.125 C-2.625 0.125 -2.625 0.125 0 0 Z " fill="#2B805B" transform="translate(308.625,280.875)"/>
<path d="M0 0 C1.0625 1.8125 1.0625 1.8125 2 4 C1.67 4.99 1.34 5.98 1 7 C0.34 6.67 -0.32 6.34 -1 6 C-1 7.32 -1 8.64 -1 10 C-1.66 10 -2.32 10 -3 10 C-3 11.32 -3 12.64 -3 14 C-3.99 14 -4.98 14 -6 14 C-4.50829734 9.0276578 -2.39542583 4.58154261 0 0 Z " fill="#217B53" transform="translate(345,214)"/>
<path d="M0 0 C3.81552617 1.49895671 5.53745046 3.7986856 8 7 C8.66 7.33 9.32 7.66 10 8 C10 9.32 10 10.64 10 12 C6.56803255 10.85601085 5.95251462 9.97505774 3.875 7.125 C3.35679687 6.42632812 2.83859375 5.72765625 2.3046875 5.0078125 C1 3 1 3 0 0 Z " fill="#182B44" transform="translate(285,137)"/>
<path d="M0 0 C0.33 0.99 0.66 1.98 1 3 C1.66 3 2.32 3 3 3 C3 2.01 3 1.02 3 0 C3.99 0 4.98 0 6 0 C6 1.98 6 3.96 6 6 C5.01 6 4.02 6 3 6 C3 6.66 3 7.32 3 8 C2.01 8 1.02 8 0 8 C0 5.36 0 2.72 0 0 Z " fill="#24814C" transform="translate(254,346)"/>
<path d="M0 0 C1.60920937 3.21841874 0.0749168 5.71553199 -1 9 C-2.78147298 10.78147298 -5.45879772 10.337761 -7.875 10.5 C-11.18718188 10.72347251 -13.84376196 10.94792065 -17 12 C-16.67 11.01 -16.34 10.02 -16 9 C-9.565 8.505 -9.565 8.505 -3 8 C-2.01 5.36 -1.02 2.72 0 0 Z " fill="#BBE4BC" transform="translate(250,269)"/>
<path d="M0 0 C0.66 0 1.32 0 2 0 C4.60018816 3.90028225 4.15085514 7.47434569 4 12 C3.01 12.33 2.02 12.66 1 13 C0.67 8.71 0.34 4.42 0 0 Z " fill="#388764" transform="translate(352,146)"/>
<path d="M0 0 C7.42857143 1 7.42857143 1 11 2 C10.38461538 8.52307692 10.38461538 8.52307692 8.4375 10.9375 C7.963125 11.288125 7.48875 11.63875 7 12 C6.34 11.67 5.68 11.34 5 11 C5.495 10.608125 5.99 10.21625 6.5 9.8125 C8.45593143 7.44908285 8.24207973 5.98564997 8 3 C5.03 2.67 2.06 2.34 -1 2 C-0.67 1.34 -0.34 0.68 0 0 Z " fill="#8DC4AE" transform="translate(319,100)"/>
<path d="M0 0 C1.65 0.33 3.3 0.66 5 1 C3.66666667 3.66666667 2.33333333 6.33333333 1 9 C0.01 8.67 -0.98 8.34 -2 8 C-1.47731534 5.23723823 -0.89130413 2.6739124 0 0 Z " fill="#32845D" transform="translate(297,292)"/>
<path d="M0 0 C0.99 0.33 1.98 0.66 3 1 C3 1.66 3 2.32 3 3 C2.34 3 1.68 3 1 3 C1 4.65 1 6.3 1 8 C-0.65 8.33 -2.3 8.66 -4 9 C-3.49396008 6.83125748 -3.00016187 5.00032373 -2 3 C-1.34 3 -0.68 3 0 3 C0 2.01 0 1.02 0 0 Z " fill="#1E7B54" transform="translate(311,272)"/>
<path d="M0 0 C0.99 0 1.98 0 3 0 C2.37240135 2.92879371 1.41377341 5.36095629 0 8 C-0.66 8 -1.32 8 -2 8 C-2.33 8.99 -2.66 9.98 -3 11 C-4 10 -4 10 -4.0625 7.4375 C-4.041875 6.633125 -4.02125 5.82875 -4 5 C-3.01 5 -2.02 5 -1 5 C-0.67 3.35 -0.34 1.7 0 0 Z " fill="#378964" transform="translate(323,256)"/>
<path d="M0 0 C0.66 0 1.32 0 2 0 C2 1.32 2 2.64 2 4 C1.01 4.33 0.02 4.66 -1 5 C-0.67 6.65 -0.34 8.3 0 10 C-1.65 10.33 -3.3 10.66 -5 11 C-5 10.01 -5 9.02 -5 8 C-4.34 8 -3.68 8 -3 8 C-2.87625 7.236875 -2.7525 6.47375 -2.625 5.6875 C-2 3 -2 3 0 0 Z " fill="#1C784F" transform="translate(330,242)"/>
<path d="M0 0 C0.85010911 2.40505552 1.14566919 3.60055975 0.2578125 6.03515625 C-0.30292969 7.03869141 -0.30292969 7.03869141 -0.875 8.0625 C-2.1677445 10.41746463 -3.14326941 12.42980824 -4 15 C-4.66 15 -5.32 15 -6 15 C-6.33 15.66 -6.66 16.32 -7 17 C-7 16.01 -7 15.02 -7 14 C-6.34 14 -5.68 14 -5 14 C-4.86722656 13.30132812 -4.73445313 12.60265625 -4.59765625 11.8828125 C-4.42105469 10.97273437 -4.24445313 10.06265625 -4.0625 9.125 C-3.88847656 8.22007812 -3.71445312 7.31515625 -3.53515625 6.3828125 C-3 4 -3 4 -2 2 C-1.34 2 -0.68 2 0 2 C0 1.34 0 0.68 0 0 Z " fill="#BAE2D0" transform="translate(314,194)"/>
<path d="M0 0 C-1.875 4.75 -1.875 4.75 -3 7 C-3.66 7 -4.32 7 -5 7 C-5.33 7.66 -5.66 8.32 -6 9 C-6.66 7.35 -7.32 5.7 -8 4 C-2.25 0 -2.25 0 0 0 Z " fill="#243C54" transform="translate(193,322)"/>
<path d="M0 0 C0.78375 0.66 1.5675 1.32 2.375 2 C4.71512812 4.20201441 4.71512812 4.20201441 7 4 C7.33 5.98 7.66 7.96 8 10 C6.25 9.875 6.25 9.875 4 9 C0 3.88888889 0 3.88888889 0 0 Z " fill="#6EAC74" transform="translate(180,254)"/>
<path d="M0 0 C0.66 0 1.32 0 2 0 C2 0.66 2 1.32 2 2 C2.66 2 3.32 2 4 2 C4 2.99 4 3.98 4 5 C5.32 5.33 6.64 5.66 8 6 C7.01 6.495 7.01 6.495 6 7 C6.33 8.65 6.66 10.3 7 12 C6.34 12 5.68 12 5 12 C5 10.35 5 8.7 5 7 C4.34 7 3.68 7 3 7 C3 6.34 3 5.68 3 5 C2.34 5 1.68 5 1 5 C0.67 3.35 0.34 1.7 0 0 Z " fill="#227A52" transform="translate(338,119)"/>
<path d="M0 0 C0 0.66 0 1.32 0 2 C-2.95664519 3.4783226 -5.74229737 3.06032783 -9 3 C-9 3.66 -9 4.32 -9 5 C-10.32 5 -11.64 5 -13 5 C-13 4.34 -13 3.68 -13 3 C-8.37802694 0.78145293 -5.23175837 -0.38281159 0 0 Z " fill="#69AE6E" transform="translate(229,74)"/>
<path d="M0 0 C0.66 0 1.32 0 2 0 C1.67 0.99 1.34 1.98 1 3 C0.34 3 -0.32 3 -1 3 C-1 3.66 -1 4.32 -1 5 C-6.41176471 9 -6.41176471 9 -9 9 C-9 8.34 -9 7.68 -9 7 C-8.34 7 -7.68 7 -7 7 C-7 6.01 -7 5.02 -7 4 C-6.195625 3.87625 -5.39125 3.7525 -4.5625 3.625 C-3.716875 3.41875 -2.87125 3.2125 -2 3 C-1.67 2.34 -1.34 1.68 -1 1 C-0.67 0.67 -0.34 0.34 0 0 Z " fill="#233956" transform="translate(175,340)"/>
<path d="M0 0 C0.33 1.32 0.66 2.64 1 4 C0.34 4 -0.32 4 -1 4 C-1 5.98 -1 7.96 -1 10 C-2.65 9.67 -4.3 9.34 -6 9 C-4.47291037 5.56404834 -2.40072955 2.88087546 0 0 Z " fill="#1E7750" transform="translate(304,284)"/>
<path d="M0 0 C0.33 0.66 0.66 1.32 1 2 C0.34 2 -0.32 2 -1 2 C-1 2.66 -1 3.32 -1 4 C-1.66 4 -2.32 4 -3 4 C-3.66 6.31 -4.32 8.62 -5 11 C-5.99 11 -6.98 11 -8 11 C-8 7 -8 7 -6.125 4.75 C-4 3 -4 3 -2 3 C-2 2.34 -2 1.68 -2 1 C-1.34 0.67 -0.68 0.34 0 0 Z " fill="#448E6D" transform="translate(272,281)"/>
<path d="M0 0 C0.66 0 1.32 0 2 0 C2 0.66 2 1.32 2 2 C3.32 2 4.64 2 6 2 C6 2.99 6 3.98 6 5 C6.66 5.33 7.32 5.66 8 6 C7.34 6 6.68 6 6 6 C5.67 7.32 5.34 8.64 5 10 C3 7 3 7 3 4 C2.34 4 1.68 4 1 4 C0.67 2.68 0.34 1.36 0 0 Z " fill="#132A40" transform="translate(168,258)"/>
<path d="M0 0 C1.65 0 3.3 0 5 0 C6.42944945 2.35438733 7.08661261 3.48032433 6.625 6.25 C6.41875 6.8275 6.2125 7.405 6 8 C5.34 8 4.68 8 4 8 C4 7.01 4 6.02 4 5 C3.34 5 2.68 5 2 5 C2 3.68 2 2.36 2 1 C1.34 0.67 0.68 0.34 0 0 Z " fill="#334C52" transform="translate(153,227)"/>
<path d="M0 0 C0.66 0.99 1.32 1.98 2 3 C-2.75 5.875 -2.75 5.875 -5 7 C-5 6.34 -5 5.68 -5 5 C-6.32 5.33 -7.64 5.66 -9 6 C-6.45543849 3.03134491 -3.51005335 1.6380249 0 0 Z " fill="#283D57" transform="translate(230,130)"/>
<path d="M0 0 C0.99 0 1.98 0 3 0 C3 0.99 3 1.98 3 3 C3.66 3 4.32 3 5 3 C7 5 7 5 7 9 C6.01 9 5.02 9 4 9 C3.34 7.02 2.68 5.04 2 3 C1.34 3 0.68 3 0 3 C0 2.01 0 1.02 0 0 Z " fill="#2E4352" transform="translate(160,240)"/>
<path d="M0 0 C0.93423645 3.01031744 1.04449911 3.86650268 0 7 C-0.66 7 -1.32 7 -2 7 C-2 7.99 -2 8.98 -2 10 C-3.32 10.33 -4.64 10.66 -6 11 C-5.67 9.68 -5.34 8.36 -5 7 C-4.34 7 -3.68 7 -3 7 C-2.87625 6.401875 -2.7525 5.80375 -2.625 5.1875 C-2 3 -2 3 0 0 Z " fill="#B0BBC5" transform="translate(300,194)"/>
<path d="M0 0 C0.66 0 1.32 0 2 0 C1.34 3.3 0.68 6.6 0 10 C-0.99 10 -1.98 10 -3 10 C-2.25 3.375 -2.25 3.375 0 0 Z " fill="#60AA64" transform="translate(160,128)"/>
<path d="M0 0 C5.625 -0.25 5.625 -0.25 9 2 C9 2.66 9 3.32 9 4 C10.65 4.33 12.3 4.66 14 5 C11.21176345 6.0326802 10.1322726 6.04509293 7.25 5.0625 C6.5075 4.711875 5.765 4.36125 5 4 C5 3.34 5 2.68 5 2 C3.35 1.67 1.7 1.34 0 1 C0 0.67 0 0.34 0 0 Z " fill="#A8D9C4" transform="translate(272,113)"/>
<path d="M0 0 C1.65 0 3.3 0 5 0 C5 0.66 5 1.32 5 2 C5.763125 2.12375 6.52625 2.2475 7.3125 2.375 C10 3 10 3 13 5 C6.375 5.125 6.375 5.125 3 4 C3 3.34 3 2.68 3 2 C2.01 1.67 1.02 1.34 0 1 C0 0.67 0 0.34 0 0 Z " fill="#2E815B" transform="translate(278,113)"/>
<path d="M0 0 C1.98 0 3.96 0 6 0 C6 0.66 6 1.32 6 2 C6.99 2.33 7.98 2.66 9 3 C8.34 3 7.68 3 7 3 C7 3.66 7 4.32 7 5 C4.61435923 4.42415568 2.33317216 3.77772405 0 3 C0 2.01 0 1.02 0 0 Z " fill="#2F885E" transform="translate(297,81)"/>
<path d="M0 0 C3.63 0 7.26 0 11 0 C8 3 8 3 5.95703125 3.29296875 C3.97135417 3.1953125 1.98567708 3.09765625 0 3 C0 2.01 0 1.02 0 0 Z " fill="#469D54" transform="translate(245,70)"/>
<path d="M0 0 C0.99 0.33 1.98 0.66 3 1 C3.33 3.64 3.66 6.28 4 9 C-0.875 6.375 -0.875 6.375 -2 3 C-1.34 2.01 -0.68 1.02 0 0 Z " fill="#5BA068" transform="translate(250,350)"/>
<path d="M0 0 C3.63 0.66 7.26 1.32 11 2 C11.33 2.99 11.66 3.98 12 5 C4.61538462 4.50769231 4.61538462 4.50769231 1.5 1.9375 C1.005 1.298125 0.51 0.65875 0 0 Z " fill="#6CAB6E" transform="translate(228,236)"/>
<path d="M0 0 C0.66 0 1.32 0 2 0 C2 0.66 2 1.32 2 2 C2.66 2 3.32 2 4 2 C5.60725635 5.21451269 5.05748185 8.43612536 5 12 C4.67 12 4.34 12 4 12 C3.566875 10.576875 3.566875 10.576875 3.125 9.125 C2.23174891 5.94788422 2.23174891 5.94788422 0 4 C0 2.68 0 1.36 0 0 Z " fill="#304259" transform="translate(197,298)"/>
<path d="M0 0 C0.66 0 1.32 0 2 0 C1.56744475 5.40694067 0.41778487 8.75366122 -3 13 C-3.66 13 -4.32 13 -5 13 C-4.67 11.68 -4.34 10.36 -4 9 C-3.34 9 -2.68 9 -2 9 C-1.22678118 6.01758453 -0.58803797 3.02419525 0 0 Z " fill="#31445A" transform="translate(300,187)"/>
<path d="M0 0 C1.32 0.33 2.64 0.66 4 1 C3.21654285 2.17219543 2.42297164 3.33763668 1.625 4.5 C1.18414062 5.1496875 0.74328125 5.799375 0.2890625 6.46875 C-0.13632812 6.9740625 -0.56171875 7.479375 -1 8 C-1.66 8 -2.32 8 -3 8 C-3.33 8.99 -3.66 9.98 -4 11 C-3.67 9.02 -3.34 7.04 -3 5 C-2.34 5 -1.68 5 -1 5 C-0.67 3.35 -0.34 1.7 0 0 Z " fill="#338662" transform="translate(281,318)"/>
<path d="M0 0 C1.98 0 3.96 0 6 0 C5.67 1.98 5.34 3.96 5 6 C3.02 5.01 1.04 4.02 -1 3 C-0.67 2.01 -0.34 1.02 0 0 Z " fill="#DEF9E0" transform="translate(236,279)"/>
<path d="M0 0 C1.98 0.99 1.98 0.99 4 2 C4 2.66 4 3.32 4 4 C4.66 4 5.32 4 6 4 C6 4.66 6 5.32 6 6 C6.9590625 6.433125 6.9590625 6.433125 7.9375 6.875 C10 8 10 8 11 10 C8.33333333 8.66666667 5.66666667 7.33333333 3 6 C3 5.34 3 4.68 3 4 C2.34 4 1.68 4 1 4 C0.67 2.68 0.34 1.36 0 0 Z " fill="#8AC18B" transform="translate(205,218)"/>
<path d="M0 0 C1 2 1 2 0.328125 4.12890625 C-0.02765625 4.93199219 -0.3834375 5.73507813 -0.75 6.5625 C-1.09546875 7.36816406 -1.4409375 8.17382812 -1.796875 9.00390625 C-3 11 -3 11 -6 12 C-5.57405412 10.55903414 -5.13373367 9.12231288 -4.6875 7.6875 C-4.44386719 6.88699219 -4.20023438 6.08648437 -3.94921875 5.26171875 C-2.95817977 2.90035427 -1.91925057 1.66120007 0 0 Z " fill="#DDF7DE" transform="translate(201,137)"/>
<path d="M0 0 C0.33 0.99 0.66 1.98 1 3 C-0.6875 5.6875 -0.6875 5.6875 -3 8 C-4.32 8 -5.64 8 -7 8 C-5.61918777 3.8575633 -3.40174442 2.67796901 0 0 Z " fill="#1D7A4E" transform="translate(305,108)"/>
<path d="M0 0 C-0.66 1.32 -1.32 2.64 -2 4 C-2.99 3.67 -3.98 3.34 -5 3 C-5.33 3.66 -5.66 4.32 -6 5 C-6.99 5.33 -7.98 5.66 -9 6 C-6.97377245 1.32409027 -5.29661848 0 0 0 Z " fill="#102945" transform="translate(180,337)"/>
<path d="M0 0 C0.66 0 1.32 0 2 0 C2 0.99 2 1.98 2 3 C2.66 3 3.32 3 4 3 C4.66 4.98 5.32 6.96 6 9 C5.01 9 4.02 9 3 9 C0.50022457 5.66696609 0 4.26696398 0 0 Z " fill="#374B60" transform="translate(167,251)"/>
<path d="M0 0 C2.39763185 2.39763185 2.34280586 3.33273498 2.625 6.625 C2.69976562 7.44226563 2.77453125 8.25953125 2.8515625 9.1015625 C2.90054688 9.72804687 2.94953125 10.35453125 3 11 C2.34 11 1.68 11 1 11 C-0.62950412 6.87831311 -1.26264601 4.29299643 0 0 Z " fill="#7BBA7C" transform="translate(152,195)"/>
<path d="M0 0 C-1.32 1.32 -2.64 2.64 -4 4 C-4.33 3.34 -4.66 2.68 -5 2 C-8.96 2 -12.92 2 -17 2 C-17 1.67 -17 1.34 -17 1 C-15.10440036 0.83069605 -13.20850769 0.66467136 -11.3125 0.5 C-10.25675781 0.4071875 -9.20101563 0.314375 -8.11328125 0.21875 C-5.39363975 0.0276585 -2.72460144 -0.04043935 0 0 Z " fill="#334D65" transform="translate(266,143)"/>
<path d="M0 0 C0.99 0 1.98 0 3 0 C3.33 0.99 3.66 1.98 4 3 C1.69 5.31 -0.62 7.62 -3 10 C-3 7 -3 7 -1 5 C-0.35232207 2.42938689 -0.35232207 2.42938689 0 0 Z " fill="#A8D5C5" transform="translate(314,117)"/>
<path d="M0 0 C0.99 0.33 1.98 0.66 3 1 C2.67 1.66 2.34 2.32 2 3 C1.01 3 0.02 3 -1 3 C-1 4.98 -1 6.96 -1 9 C-1.66 8.67 -2.32 8.34 -3 8 C-3.1875 5.125 -3.1875 5.125 -3 2 C-2.01 1.34 -1.02 0.68 0 0 Z " fill="#D6F4E6" transform="translate(264,285)"/>
<path d="M0 0 C2.99324263 1.0975223 3.84610901 1.67682892 5.25 4.625 C5.4975 5.40875 5.745 6.1925 6 7 C4.68 7.33 3.36 7.66 2 8 C1.34 5.36 0.68 2.72 0 0 Z " fill="#283D55" transform="translate(190,289)"/>
<path d="M0 0 C0.625 1.875 0.625 1.875 1 4 C0.34 4.66 -0.32 5.32 -1 6 C-1.99 6 -2.98 6 -4 6 C-4 6.99 -4 7.98 -4 9 C-4.66 8.67 -5.32 8.34 -6 8 C-4.73058503 4.08597051 -3.48832306 2.20927127 0 0 Z " fill="#415066" transform="translate(215,142)"/>
<path d="M0 0 C4.99184736 -0.29363808 7.97444744 -0.07836372 12 3 C12.33 3.66 12.66 4.32 13 5 C11.68 5 10.36 5 9 5 C9 4.01 9 3.02 9 2 C6.03 1.67 3.06 1.34 0 1 C0 0.67 0 0.34 0 0 Z " fill="#304F68" transform="translate(258,138)"/>
<path d="M0 0 C1.9375 0.625 1.9375 0.625 4 2 C4.75 5.125 4.75 5.125 5 8 C4.01 8 3.02 8 2 8 C1.34 5.36 0.68 2.72 0 0 Z " fill="#3F8F68" transform="translate(344,126)"/>
<path d="M0 0 C2.625 -0.1875 2.625 -0.1875 5 0 C5.66 1.98 6.32 3.96 7 6 C6.01 6.495 6.01 6.495 5 7 C5 6.01 5 5.02 5 4 C4.34 4 3.68 4 3 4 C3 3.34 3 2.68 3 2 C1.35 2.33 -0.3 2.66 -2 3 C-1.34 2.01 -0.68 1.02 0 0 Z " fill="#3D8666" transform="translate(330,107)"/>
<path d="M0 0 C0.66 0 1.32 0 2 0 C0.94124926 3.40312738 -0.00902154 6.01353231 -2 9 C-2.99 8.67 -3.98 8.34 -5 8 C-4.01 6.02 -3.02 4.04 -2 2 C-1.34 2 -0.68 2 0 2 C0 1.34 0 0.68 0 0 Z " fill="#2F835F" transform="translate(333,242)"/>
<path d="M0 0 C0.66 0 1.32 0 2 0 C1.44271087 3.34373475 0.64826111 6.03312999 -1 9 C-1.99 8.67 -2.98 8.34 -4 8 C-3.67 6.68 -3.34 5.36 -3 4 C-2.01 4 -1.02 4 0 4 C0 2.68 0 1.36 0 0 Z " fill="#388865" transform="translate(349,209)"/>
<path d="M0 0 C1.98 0 3.96 0 6 0 C5.690625 0.598125 5.38125 1.19625 5.0625 1.8125 C3.89790296 4.08956772 3.89790296 4.08956772 3 7 C2.34 7 1.68 7 1 7 C1.33 5.02 1.66 3.04 2 1 C1.34 0.67 0.68 0.34 0 0 Z " fill="#172E46" transform="translate(255,145)"/>
<path d="M0 0 C0.804375 0.4640625 0.804375 0.4640625 1.625 0.9375 C4.3984957 2.17827439 7.00042837 2.5909675 10 3 C10 3.66 10 4.32 10 5 C7.36 5 4.72 5 2 5 C2 4.01 2 3.02 2 2 C1.34 2 0.68 2 0 2 C0 1.34 0 0.68 0 0 Z " fill="#BEE0D1" transform="translate(286,119)"/>
<path d="M0 0 C0.99 0 1.98 0 3 0 C7 5.14285714 7 5.14285714 7 9 C6.34 9 5.68 9 5 9 C5 8.01 5 7.02 5 6 C4.34 6 3.68 6 3 6 C3 5.34 3 4.68 3 4 C2.34 4 1.68 4 1 4 C0.67 2.68 0.34 1.36 0 0 Z " fill="#338763" transform="translate(337,115)"/>
<path d="M0 0 C2.31 0 4.62 0 7 0 C6.01 1.485 6.01 1.485 5 3 C1.375 3.6875 1.375 3.6875 -2 4 C-1.34 2.68 -0.68 1.36 0 0 Z " fill="#7FBA84" transform="translate(230,111)"/>
<path d="M0 0 C0.33 0.99 0.66 1.98 1 3 C0.01 3.33 -0.98 3.66 -2 4 C-2 4.66 -2 5.32 -2 6 C-2.99 6.33 -3.98 6.66 -5 7 C-5.33 7.66 -5.66 8.32 -6 9 C-6.66 8.67 -7.32 8.34 -8 8 C-5.58443874 4.80800833 -3.31996462 2.25283313 0 0 Z " fill="#92C8AE" transform="translate(309,108)"/>
<path d="M0 0 C1.32 0.66 2.64 1.32 4 2 C4 3.32 4 4.64 4 6 C3.01 6 2.02 6 1 6 C0.34 4.35 -0.32 2.7 -1 1 C-0.67 0.67 -0.34 0.34 0 0 Z " fill="#66A86A" transform="translate(235,332)"/>
<path d="M0 0 C0.99 0.33 1.98 0.66 3 1 C2.01 1.495 2.01 1.495 1 2 C0.59270772 4.32156597 0.25561323 6.6568787 0 9 C-0.37125 8.0409375 -0.37125 8.0409375 -0.75 7.0625 C-1.81562433 4.81258459 -1.81562433 4.81258459 -4.125 4.25 C-4.74375 4.1675 -5.3625 4.085 -6 4 C-3.1875 1.9375 -3.1875 1.9375 0 0 Z " fill="#6FB47D" transform="translate(252,297)"/>
<path d="M0 0 C-2.31 0.33 -4.62 0.66 -7 1 C-7 1.66 -7 2.32 -7 3 C-8.32 3 -9.64 3 -11 3 C-11 2.01 -11 1.02 -11 0 C-3.57142857 -1.28571429 -3.57142857 -1.28571429 0 0 Z " fill="#A9D8CA" transform="translate(283,234)"/>
<path d="M0 0 C5.94 1.485 5.94 1.485 12 3 C12 3.66 12 4.32 12 5 C3.42857143 4.14285714 3.42857143 4.14285714 0 2 C0 1.34 0 0.68 0 0 Z " fill="#294C69" transform="translate(236,207)"/>
<path d="M0 0 C0.33 0 0.66 0 1 0 C1.33 3.3 1.66 6.6 2 10 C1.01 10.33 0.02 10.66 -1 11 C-1 11.66 -1 12.32 -1 13 C-2.32 13.33 -3.64 13.66 -5 14 C-4.67 13.34 -4.34 12.68 -4 12 C-3.34 12 -2.68 12 -2 12 C-1.34 8.04 -0.68 4.08 0 0 Z " fill="#637587" transform="translate(281,152)"/>
<path d="M0 0 C0.66 0 1.32 0 2 0 C1.67 1.98 1.34 3.96 1 6 C-0.32 6 -1.64 6 -3 6 C-2.42655063 3.13275314 -2.1385485 2.1385485 0 0 Z " fill="#57A35C" transform="translate(156,139)"/>
<path d="M0 0 C1.32 0.33 2.64 0.66 4 1 C0.535 3.97 0.535 3.97 -3 7 C-2.67 5.35 -2.34 3.7 -2 2 C-1.34 2 -0.68 2 0 2 C0 1.34 0 0.68 0 0 Z " fill="#2C8059" transform="translate(309,104)"/>
<path d="M0 0 C0.66 0 1.32 0 2 0 C1.1875 2.4375 1.1875 2.4375 0 5 C-0.99 5.33 -1.98 5.66 -3 6 C-3.33 4.35 -3.66 2.7 -4 1 C-2.68 1.33 -1.36 1.66 0 2 C0 1.34 0 0.68 0 0 Z " fill="#418A59" transform="translate(257,352)"/>
<path d="M0 0 C2.31 0 4.62 0 7 0 C7.66 1.32 8.32 2.64 9 4 C7.35 4 5.7 4 4 4 C4.33 3.01 4.66 2.02 5 1 C3.35 1.33 1.7 1.66 0 2 C0 1.34 0 0.68 0 0 Z " fill="#4D715F" transform="translate(149,223)"/>
<path d="M0 0 C0.66 0 1.32 0 2 0 C2.33 0.99 2.66 1.98 3 3 C1.35 4.65 -0.3 6.3 -2 8 C-2 6.02 -2 4.04 -2 2 C-1.34 2 -0.68 2 0 2 C0 1.34 0 0.68 0 0 Z " fill="#132843" transform="translate(209,152)"/>
<path d="M0 0 C0.99 0 1.98 0 3 0 C2.67 2.64 2.34 5.28 2 8 C1.67 7.01 1.34 6.02 1 5 C0.34 5 -0.32 5 -1 5 C-0.67 3.35 -0.34 1.7 0 0 Z " fill="#61A964" transform="translate(153,145)"/>
<path d="M0 0 C2.0245738 1.93254772 3.42105792 3.63158688 5 6 C4.625 8.1875 4.625 8.1875 4 10 C3.67 9.01 3.34 8.02 3 7 C2.34 7 1.68 7 1 7 C0.67 4.69 0.34 2.38 0 0 Z " fill="#A5D5BF" transform="translate(308,140)"/>
<path d="M0 0 C0.33 0.66 0.66 1.32 1 2 C1.66 2.33 2.32 2.66 3 3 C2.01 3.33 1.02 3.66 0 4 C-0.33 4.66 -0.66 5.32 -1 6 C-1.99 6 -2.98 6 -4 6 C-3.6875 4.125 -3.6875 4.125 -3 2 C-2.01 1.34 -1.02 0.68 0 0 Z " fill="#5CA863" transform="translate(203,83)"/>
<path d="M0 0 C-1.75 2.0625 -1.75 2.0625 -4 4 C-6.25 3.75 -6.25 3.75 -8 3 C-5.53387212 -0.1151089 -3.89156016 -0.31553191 0 0 Z " fill="#273F55" transform="translate(283,215)"/>
<path d="M0 0 C0.33 0 0.66 0 1 0 C1.33 2.97 1.66 5.94 2 9 C1.01 8.67 0.02 8.34 -1 8 C-1.33 6.35 -1.66 4.7 -2 3 C-1.34 3 -0.68 3 0 3 C0 2.01 0 1.02 0 0 Z " fill="#64AA68" transform="translate(152,188)"/>
<path d="M0 0 C1.98 0 3.96 0 6 0 C6 0.66 6 1.32 6 2 C6.99 2.33 7.98 2.66 9 3 C6.75 3.75 6.75 3.75 4 4 C1.6875 2.0625 1.6875 2.0625 0 0 Z " fill="#428E6B" transform="translate(286,118)"/>
<path d="M0 0 C0 0.66 0 1.32 0 2 C-3.375 2.125 -3.375 2.125 -7 2 C-7.66 1.34 -8.32 0.68 -9 0 C-5.67465243 -1.10844919 -3.37817425 -0.84454356 0 0 Z " fill="#388C67" transform="translate(293,77)"/>
<path d="M0 0 C0.33 0.66 0.66 1.32 1 2 C1.99 2.33 2.98 2.66 4 3 C3.67 4.32 3.34 5.64 3 7 C3 6.01 3 5.02 3 4 C2.34 4 1.68 4 1 4 C0.67 4.66 0.34 5.32 0 6 C0 5.34 0 4.68 0 4 C-0.66 4 -1.32 4 -2 4 C-2 3.34 -2 2.68 -2 2 C-1.34 2 -0.68 2 0 2 C0 1.34 0 0.68 0 0 Z " fill="#5EA462" transform="translate(208,293)"/>
<path d="M0 0 C1.65 0 3.3 0 5 0 C5 1.65 5 3.3 5 5 C3.0625 4.1875 3.0625 4.1875 1 3 C0.67 2.01 0.34 1.02 0 0 Z " fill="#6DAB71" transform="translate(203,290)"/>
<path d="M0 0 C0.99 0 1.98 0 3 0 C1.66666667 2.66666667 0.33333333 5.33333333 -1 8 C-1.66 8 -2.32 8 -3 8 C-3 7.01 -3 6.02 -3 5 C-2.34 5 -1.68 5 -1 5 C-0.67 3.35 -0.34 1.7 0 0 Z " fill="#388A67" transform="translate(315,270)"/>
<path d="M0 0 C1.32 0.66 2.64 1.32 4 2 C3.34 2 2.68 2 2 2 C2.33 3.98 2.66 5.96 3 8 C2.34 8 1.68 8 1 8 C-0.42944945 5.64561267 -1.08661261 4.51967567 -0.625 1.75 C-0.41875 1.1725 -0.2125 0.595 0 0 Z " fill="#152A43" transform="translate(165,249)"/>
<path d="M0 0 C1.67542976 0.28604898 3.34385343 0.61781233 5 1 C5 1.66 5 2.32 5 3 C3.35 3 1.7 3 0 3 C0 4.65 0 6.3 0 8 C-0.33 8 -0.66 8 -1 8 C-1.04241723 5.66705225 -1.04092937 3.33297433 -1 1 C-0.67 0.67 -0.34 0.34 0 0 Z " fill="#4F8C5B" transform="translate(149,220)"/>
<path d="M0 0 C0.99 0 1.98 0 3 0 C2.3125 1.9375 2.3125 1.9375 1 4 C-1.625 4.75 -1.625 4.75 -4 5 C-3.67 4.01 -3.34 3.02 -3 2 C-2.01 2 -1.02 2 0 2 C0 1.34 0 0.68 0 0 Z " fill="#132A40" transform="translate(287,208)"/>
<path d="M0 0 C1.98 0.66 3.96 1.32 6 2 C6 2.66 6 3.32 6 4 C6.66 4 7.32 4 8 4 C8 4.66 8 5.32 8 6 C4.08597051 4.73058503 2.20927127 3.48832306 0 0 Z " fill="#10263E" transform="translate(218,209)"/>
<path d="M0 0 C1.32 0.99 2.64 1.98 4 3 C3.67 4.32 3.34 5.64 3 7 C2.01 7 1.02 7 0 7 C0 4.69 0 2.38 0 0 Z " fill="#14774B" transform="translate(354,185)"/>
<path d="M0 0 C1.32 0 2.64 0 4 0 C6.25 2.5 6.25 2.5 8 5 C6.02 5 4.04 5 2 5 C2 3.68 2 2.36 2 1 C1.34 0.67 0.68 0.34 0 0 Z " fill="#5E7384" transform="translate(274,128)"/>
<path d="M0 0 C0.99 0.33 1.98 0.66 3 1 C2.34 1 1.68 1 1 1 C0.67 2.98 0.34 4.96 0 7 C-0.99 7 -1.98 7 -3 7 C-2.38722388 4.03824877 -1.74627478 2.61941217 0 0 Z " fill="#60AA65" transform="translate(165,119)"/>
<path d="M0 0 C0.66 0.33 1.32 0.66 2 1 C0 4 0 4 -3.125 4.6875 C-4.07375 4.790625 -5.0225 4.89375 -6 5 C-6 4.34 -6 3.68 -6 3 C-4.03533587 1.93224776 -2.03144641 0.93446535 0 0 Z " fill="#B4DBB6" transform="translate(222,117)"/>
<path d="M0 0 C-0.6875 1.9375 -0.6875 1.9375 -2 4 C-4.625 4.75 -4.625 4.75 -7 5 C-7 4.34 -7 3.68 -7 3 C-4.4385343 0.70351351 -3.52032428 0 0 0 Z " fill="#DAF9EA" transform="translate(317,105)"/>
<path d="M0 0 C0.99 0 1.98 0 3 0 C5.125 4.625 5.125 4.625 4 8 C0 2.25 0 2.25 0 0 Z " fill="#152943" transform="translate(178,274)"/>
<path d="M0 0 C0.99 0.33 1.98 0.66 3 1 C3.6875 3.0625 3.6875 3.0625 4 5 C2.68 5 1.36 5 0 5 C-0.5625 3.0625 -0.5625 3.0625 -1 1 C-0.67 0.67 -0.34 0.34 0 0 Z " fill="#A3DAB6" transform="translate(252,264)"/>
<path d="M0 0 C0.99 0 1.98 0 3 0 C1.95125002 2.62187494 1.35068687 3.79371361 -1.125 5.25 C-1.74375 5.4975 -2.3625 5.745 -3 6 C-3 5.01 -3 4.02 -3 3 C-2.01 3 -1.02 3 0 3 C0 2.01 0 1.02 0 0 Z " fill="#CBF0DF" transform="translate(295,220)"/>
<path d="M0 0 C2.31 0 4.62 0 7 0 C7.33 1.32 7.66 2.64 8 4 C4.31245243 3.50168276 2.39509338 2.89932357 0 0 Z " fill="#5C687E" transform="translate(230,219)"/>
<path d="M0 0 C2.375 0.1875 2.375 0.1875 5 1 C6.3125 3.5625 6.3125 3.5625 7 6 C3.63279613 4.60667426 2.0140476 3.0210714 0 0 Z " fill="#D2EFCF" transform="translate(202,214)"/>
<path d="M0 0 C0.99 0 1.98 0 3 0 C3 1.98 3 3.96 3 6 C2.01 5.67 1.02 5.34 0 5 C0 3.35 0 1.7 0 0 Z " fill="#328B62" transform="translate(355,182)"/>
<path d="M0 0 C0.66 0 1.32 0 2 0 C2.33 0.66 2.66 1.32 3 2 C3.99 2.33 4.98 2.66 6 3 C5.67 4.65 5.34 6.3 5 8 C4.34 6.68 3.68 5.36 3 4 C2.34 4 1.68 4 1 4 C0.67 2.68 0.34 1.36 0 0 Z " fill="#257E56" transform="translate(333,111)"/>
</svg>
